<svg xmlns="http://www.w3.org/2000/svg" xmlns:xlink="http://www.w3.org/1999/xlink" width="1080" zoomAndPan="magnify" viewBox="0 0 810 809.999993" height="1080" preserveAspectRatio="xMidYMid meet" version="1.2"><defs><clipPath id="db8723581b"><path d="M 156 157 L 654 157 L 654 654 L 156 654 Z M 156 157 "/></clipPath><clipPath id="e4e113faa2"><path d="M 0.0078125 313.742188 L 496.425781 -0.121094 L 810.289062 496.296875 L 313.871094 810.164062 Z M 0.0078125 313.742188 "/></clipPath><clipPath id="21684e5210"><path d="M 0.0078125 313.742188 L 496.425781 -0.121094 L 810.289062 496.296875 L 313.871094 810.164062 Z M 0.0078125 313.742188 "/></clipPath><clipPath id="6a39cda3aa"><path d="M 159 214 L 257 214 L 257 513 L 159 513 Z M 159 214 "/></clipPath><clipPath id="5bd6620f59"><path d="M 0.0078125 313.742188 L 496.425781 -0.121094 L 810.289062 496.296875 L 313.871094 810.164062 Z M 0.0078125 313.742188 "/></clipPath><clipPath id="e1826e97ab"><path d="M 0.0078125 313.742188 L 496.425781 -0.121094 L 810.289062 496.296875 L 313.871094 810.164062 Z M 0.0078125 313.742188 "/></clipPath><clipPath id="4809947fdf"><path d="M 553 299 L 651 299 L 651 598 L 553 598 Z M 553 299 "/></clipPath><clipPath id="3fdcdaa155"><path d="M 0.0078125 313.742188 L 496.425781 -0.121094 L 810.289062 496.296875 L 313.871094 810.164062 Z M 0.0078125 313.742188 "/></clipPath><clipPath id="d92bfa9c2d"><path d="M 0.0078125 313.742188 L 496.425781 -0.121094 L 810.289062 496.296875 L 313.871094 810.164062 Z M 0.0078125 313.742188 "/></clipPath><clipPath id="ea9938395a"><path d="M 298 160 L 597 160 L 597 258 L 298 258 Z M 298 160 "/></clipPath><clipPath id="0ca8bc2c31"><path d="M 0.0078125 313.742188 L 496.425781 -0.121094 L 810.289062 496.296875 L 313.871094 810.164062 Z M 0.0078125 313.742188 "/></clipPath><clipPath id="c9a1e78ecb"><path d="M 0.0078125 313.742188 L 496.425781 -0.121094 L 810.289062 496.296875 L 313.871094 810.164062 Z M 0.0078125 313.742188 "/></clipPath><clipPath id="7e8970c0ed"><path d="M 213 554 L 512 554 L 512 652 L 213 652 Z M 213 554 "/></clipPath><clipPath id="292402b5b5"><path d="M 0.0078125 313.742188 L 496.425781 -0.121094 L 810.289062 496.296875 L 313.871094 810.164062 Z M 0.0078125 313.742188 "/></clipPath><clipPath id="74c13ee46a"><path d="M 0.0078125 313.742188 L 496.425781 -0.121094 L 810.289062 496.296875 L 313.871094 810.164062 Z M 0.0078125 313.742188 "/></clipPath></defs><g id="ff56eadc9c"><g clip-rule="nonzero" clip-path="url(#db8723581b)"><g clip-rule="nonzero" clip-path="url(#e4e113faa2)"><g clip-rule="nonzero" clip-path="url(#21684e5210)"><path style=" stroke:none;fill-rule:nonzero;fill:#ff3131;fill-opacity:1;" d="M 653.363281 248.816406 C 653.285156 248.691406 653.160156 248.769531 653.082031 248.644531 C 653.003906 248.523438 653.046875 248.320312 652.84375 248.273438 C 652.765625 248.148438 652.4375 248.179688 652.28125 247.933594 C 652 247.761719 651.714844 247.589844 651.308594 247.5 C 651.027344 247.328125 650.824219 247.285156 650.621094 247.238281 C 650.292969 247.269531 649.964844 247.304688 649.636719 247.335938 C 649.390625 247.496094 649.105469 247.324219 648.78125 247.355469 L 441.84375 329.304688 L 444.984375 239.992188 C 444.90625 239.867188 444.75 239.617188 444.875 239.539062 C 444.71875 239.289062 444.761719 239.085938 444.605469 238.839844 C 444.527344 238.714844 444.449219 238.589844 444.324219 238.667969 C 444.371094 238.464844 444.167969 238.417969 444.085938 238.292969 C 443.804688 238.125 443.851562 237.921875 443.648438 237.875 C 443.570312 237.75 443.445312 237.828125 443.445312 237.828125 C 443.320312 237.90625 443.320312 237.90625 443.242188 237.785156 C 443.117188 237.863281 443.117188 237.863281 443.039062 237.738281 C 442.914062 237.816406 442.835938 237.691406 442.835938 237.691406 C 442.710938 237.769531 442.585938 237.847656 442.382812 237.804688 C 442.257812 237.882812 442.054688 237.835938 441.804688 237.992188 L 441.246094 238.347656 C 441.121094 238.425781 441.074219 238.628906 440.824219 238.789062 C 440.90625 238.910156 440.65625 239.070312 440.53125 239.148438 L 405.070312 321.179688 L 252.847656 158.152344 C 252.765625 158.03125 252.441406 158.0625 252.28125 157.8125 C 252 157.644531 251.71875 157.472656 251.3125 157.382812 C 251.03125 157.210938 250.90625 157.289062 250.625 157.121094 C 250.296875 157.152344 249.96875 157.183594 249.71875 157.34375 C 249.390625 157.375 249.234375 157.125 248.984375 157.285156 C 248.78125 157.238281 248.734375 157.441406 248.609375 157.519531 C 248.484375 157.597656 248.40625 157.472656 248.28125 157.554688 C 248.160156 157.632812 248.113281 157.835938 248.113281 157.835938 C 247.988281 157.914062 247.785156 157.867188 247.738281 158.070312 C 247.488281 158.230469 247.523438 158.554688 247.476562 158.761719 C 247.101562 158.996094 246.933594 159.277344 246.886719 159.480469 C 246.796875 159.886719 246.671875 159.964844 246.703125 160.292969 C 246.738281 160.621094 246.769531 160.949219 246.804688 161.277344 C 246.835938 161.605469 246.789062 161.808594 246.746094 162.011719 L 328.769531 369.074219 L 239.332031 366.007812 C 239.332031 366.007812 239.207031 366.085938 239.003906 366.042969 C 238.882812 366.121094 238.554688 366.152344 238.429688 366.230469 C 238.179688 366.390625 238.179688 366.390625 238.054688 366.46875 C 237.929688 366.546875 237.761719 366.828125 237.714844 367.03125 C 237.589844 367.109375 237.589844 367.109375 237.464844 367.1875 C 237.339844 367.269531 237.417969 367.394531 237.296875 367.472656 C 237.375 367.597656 237.375 367.597656 237.25 367.675781 L 237.328125 367.800781 C 237.203125 367.878906 237.078125 367.957031 237.15625 368.082031 L 237.394531 368.453125 C 237.347656 368.65625 237.382812 368.984375 237.382812 368.984375 L 237.695312 369.484375 C 237.898438 369.53125 237.976562 369.652344 238.261719 369.824219 C 238.339844 369.949219 238.417969 370.074219 238.417969 370.074219 L 320.527344 405.65625 L 157.632812 557.539062 C 157.585938 557.742188 157.621094 558.070312 157.371094 558.226562 C 157.199219 558.507812 157.03125 558.792969 156.859375 559.074219 C 156.691406 559.355469 156.769531 559.480469 156.800781 559.808594 C 156.710938 560.214844 156.742188 560.542969 156.777344 560.871094 C 156.933594 561.117188 156.761719 561.402344 156.839844 561.523438 C 156.796875 561.730469 157 561.773438 157.078125 561.898438 C 157.15625 562.023438 157.03125 562.101562 157.109375 562.226562 C 157.191406 562.351562 157.3125 562.273438 157.394531 562.398438 C 157.472656 562.523438 157.425781 562.726562 157.628906 562.769531 C 157.785156 563.019531 158.113281 562.988281 158.273438 563.234375 C 158.554688 563.40625 158.835938 563.578125 159.164062 563.542969 C 159.242188 563.667969 159.445312 563.714844 159.648438 563.757812 C 160.054688 563.851562 160.507812 563.738281 160.898438 563.667969 C 161.148438 563.507812 161.429688 563.679688 161.632812 563.726562 L 368.691406 481.703125 L 365.550781 571.011719 L 365.785156 571.386719 C 365.738281 571.589844 365.898438 571.839844 365.851562 572.042969 C 365.929688 572.164062 365.929688 572.164062 366.210938 572.335938 C 366.292969 572.460938 366.449219 572.710938 366.652344 572.753906 C 366.730469 572.878906 366.808594 573.003906 366.808594 573.003906 C 366.886719 573.128906 367.011719 573.050781 367.214844 573.097656 C 367.214844 573.097656 367.214844 573.097656 367.292969 573.21875 L 367.417969 573.140625 C 367.621094 573.1875 367.699219 573.3125 367.824219 573.234375 C 367.824219 573.234375 368.074219 573.074219 368.152344 573.199219 C 368.402344 573.042969 368.605469 573.089844 368.652344 572.886719 C 368.855469 572.929688 368.855469 572.929688 368.980469 572.851562 C 369.226562 572.695312 369.398438 572.414062 369.445312 572.210938 L 369.816406 571.972656 L 405.277344 489.945312 L 557.160156 652.835938 C 557.441406 653.007812 557.644531 653.054688 557.925781 653.222656 C 558.207031 653.394531 558.488281 653.5625 558.691406 653.609375 C 558.898438 653.65625 558.976562 653.78125 559.179688 653.824219 C 559.585938 653.917969 560.039062 653.804688 560.550781 653.65625 C 560.800781 653.496094 560.957031 653.746094 561.207031 653.589844 C 561.535156 653.554688 561.660156 653.476562 561.910156 653.320312 C 562.035156 653.242188 562.28125 653.082031 562.453125 652.800781 C 562.578125 652.722656 562.542969 652.394531 562.792969 652.238281 C 563.089844 651.878906 563.257812 651.59375 563.414062 651.148438 C 563.457031 650.945312 563.503906 650.742188 563.425781 650.617188 C 563.59375 650.335938 563.5625 650.007812 563.40625 649.757812 C 563.371094 649.429688 563.542969 649.148438 563.386719 648.902344 L 481.484375 441.761719 L 570.796875 444.902344 C 571.046875 444.746094 571.167969 444.667969 571.371094 444.714844 C 571.496094 444.636719 571.699219 444.679688 571.824219 444.601562 C 571.949219 444.523438 571.949219 444.523438 572.074219 444.445312 C 572.324219 444.289062 572.492188 444.003906 572.539062 443.800781 L 572.914062 443.566406 C 572.957031 443.363281 572.957031 443.363281 573.003906 443.160156 C 573.050781 442.957031 573.050781 442.957031 573.015625 442.628906 C 573.015625 442.628906 572.9375 442.503906 572.984375 442.300781 C 572.828125 442.050781 572.871094 441.847656 572.714844 441.597656 C 572.636719 441.476562 572.636719 441.476562 572.433594 441.429688 C 572.480469 441.226562 572.277344 441.179688 572.195312 441.054688 C 571.992188 441.007812 571.960938 440.683594 571.835938 440.761719 L 489.726562 405.175781 L 652.496094 253.375 C 652.667969 253.089844 652.632812 252.765625 652.882812 252.605469 C 653.054688 252.324219 653.347656 251.964844 653.5 251.519531 C 653.546875 251.316406 653.59375 251.109375 653.515625 250.988281 C 653.683594 250.703125 653.527344 250.457031 653.496094 250.128906 C 653.460938 249.800781 653.632812 249.519531 653.472656 249.269531 C 653.519531 249.066406 653.316406 249.019531 653.238281 248.894531 C 653.316406 249.019531 653.441406 248.941406 653.363281 248.816406 Z M 387.347656 466.683594 L 368.816406 474.039062 L 196.609375 542.132812 L 370.191406 432.382812 L 399.332031 413.960938 Z M 378.484375 370.929688 L 396.910156 400.066406 L 344.1875 388.082031 L 336.828125 369.554688 L 268.738281 197.347656 Z M 473.304688 442.054688 L 541.398438 614.261719 L 431.648438 440.675781 L 413.226562 411.539062 L 465.945312 423.523438 Z M 439.941406 379.222656 L 410.800781 397.644531 L 422.785156 344.925781 L 441.316406 337.566406 L 613.523438 269.472656 Z M 439.941406 379.222656 "/></g></g></g><g clip-rule="nonzero" clip-path="url(#6a39cda3aa)"><g clip-rule="nonzero" clip-path="url(#5bd6620f59)"><g clip-rule="nonzero" clip-path="url(#e1826e97ab)"><path style=" stroke:none;fill-rule:nonzero;fill:#ff3131;fill-opacity:1;" d="M 256.636719 229.484375 L 250.828125 214.507812 C 162.207031 285.789062 134.214844 409.8125 183.617188 512.351562 L 195.367188 501.4375 C 152.535156 407.640625 177.722656 295.851562 256.636719 229.484375 Z M 256.636719 229.484375 "/></g></g></g><g clip-rule="nonzero" clip-path="url(#4809947fdf)"><g clip-rule="nonzero" clip-path="url(#3fdcdaa155)"><g clip-rule="nonzero" clip-path="url(#d92bfa9c2d)"><path style=" stroke:none;fill-rule:nonzero;fill:#ff3131;fill-opacity:1;" d="M 553.371094 582.199219 L 559.179688 597.175781 C 648.027344 525.839844 676.105469 401.675781 626.476562 299.195312 L 614.765625 310.171875 C 657.597656 403.96875 632.492188 515.878906 553.371094 582.199219 Z M 553.371094 582.199219 "/></g></g></g><g clip-rule="nonzero" clip-path="url(#ea9938395a)"><g clip-rule="nonzero" clip-path="url(#0ca8bc2c31)"><g clip-rule="nonzero" clip-path="url(#c9a1e78ecb)"><path style=" stroke:none;fill-rule:nonzero;fill:#ff3131;fill-opacity:1;" d="M 581.382812 257.375 L 596.363281 251.566406 C 525.101562 162.84375 400.816406 134.84375 298.457031 184.394531 L 309.371094 196.144531 C 403.152344 153.148438 515.019531 178.457031 581.382812 257.375 Z M 581.382812 257.375 "/></g></g></g><g clip-rule="nonzero" clip-path="url(#7e8970c0ed)"><g clip-rule="nonzero" clip-path="url(#292402b5b5)"><g clip-rule="nonzero" clip-path="url(#74c13ee46a)"><path style=" stroke:none;fill-rule:nonzero;fill:#ff3131;fill-opacity:1;" d="M 228.667969 554.109375 L 213.773438 560.042969 C 285.03125 648.761719 409.316406 676.765625 511.675781 627.210938 L 500.699219 615.503906 C 406.902344 658.335938 294.992188 633.226562 228.667969 554.109375 Z M 228.667969 554.109375 "/></g></g></g><g style="fill:#ff3131;fill-opacity:1;"><g transform="translate(217.974202, 153.169034)"><path style="stroke:none" d="M 0.5 -29 C -1.0625 -29.550781 -2.816406 -30.238281 -4.765625 -31.0625 L -4.8125 -31.03125 L 5.359375 -15.171875 C 6.578125 -13.253906 7.476562 -11.671875 8.0625 -10.421875 C 9.101562 -11.222656 10.359375 -12.085938 11.828125 -13.015625 L 14.328125 -9.0625 L 2.609375 -1.65625 L 0.46875 -5.046875 C 1.375 -5.660156 2.003906 -6.210938 2.359375 -6.703125 C 2.722656 -7.191406 2.847656 -7.828125 2.734375 -8.609375 C 2.617188 -9.398438 2.140625 -10.46875 1.296875 -11.8125 L -11.234375 -31.421875 C -12.679688 -33.710938 -13.59375 -35.296875 -13.96875 -36.171875 L -17.75 -33.546875 L -20.265625 -37.515625 L -12.203125 -42.609375 L 16.046875 -32.71875 C 18.671875 -31.738281 20.894531 -30.863281 22.71875 -30.09375 L 22.78125 -30.125 L 12.484375 -46.40625 C 11.078125 -48.632812 10.148438 -50.207031 9.703125 -51.125 L 5.96875 -48.546875 L 3.453125 -52.515625 L 15.15625 -59.90625 L 17.3125 -56.5 C 16.40625 -55.882812 15.773438 -55.332031 15.421875 -54.84375 C 15.066406 -54.351562 14.945312 -53.710938 15.0625 -52.921875 C 15.175781 -52.128906 15.648438 -51.070312 16.484375 -49.75 L 34.578125 -21.140625 L 30.21875 -18.375 Z M 0.5 -29 "/></g></g><g style="fill:#ff3131;fill-opacity:1;"><g transform="translate(573.022364, 704.782746)"><path style="stroke:none" d="M 16.28125 -9.15625 C 14.875 -8.269531 13.234375 -7.546875 11.359375 -6.984375 C 9.492188 -6.421875 7.644531 -6.101562 5.8125 -6.03125 L 5.765625 -6 L 7.28125 -3.953125 L 3.328125 -1.4375 L -4.28125 -13.46875 L -0.890625 -15.625 C 1.335938 -13.09375 3.773438 -11.617188 6.421875 -11.203125 C 9.078125 -10.796875 11.640625 -11.375 14.109375 -12.9375 C 15.878906 -14.0625 17.046875 -15.460938 17.609375 -17.140625 C 18.179688 -18.828125 18.046875 -20.335938 17.203125 -21.671875 C 16.515625 -22.765625 15.535156 -23.457031 14.265625 -23.75 C 13.003906 -24.050781 11.757812 -24.128906 10.53125 -23.984375 C 9.300781 -23.835938 7.398438 -23.523438 4.828125 -23.046875 C 0.117188 -22.160156 -3.84375 -22.039062 -7.0625 -22.6875 C -10.28125 -23.34375 -12.875 -25.226562 -14.84375 -28.34375 C -15.832031 -29.914062 -16.40625 -31.695312 -16.5625 -33.6875 C -16.71875 -35.675781 -16.210938 -37.734375 -15.046875 -39.859375 C -13.878906 -41.992188 -11.875 -43.960938 -9.03125 -45.765625 C -7.5625 -46.691406 -5.882812 -47.445312 -4 -48.03125 C -2.113281 -48.625 -0.394531 -48.863281 1.15625 -48.75 L 1.21875 -48.78125 L -0.328125 -50.75 L 3.6875 -53.296875 L 11.25 -41.34375 L 7.859375 -39.1875 C 5.640625 -41.707031 3.300781 -43.222656 0.84375 -43.734375 C -1.601562 -44.242188 -4.007812 -43.75 -6.375 -42.25 C -7.914062 -41.269531 -8.972656 -40.007812 -9.546875 -38.46875 C -10.128906 -36.9375 -10.023438 -35.539062 -9.234375 -34.28125 C -8.273438 -32.769531 -6.835938 -31.898438 -4.921875 -31.671875 C -3.015625 -31.441406 -0.164062 -31.660156 3.625 -32.328125 C 7.945312 -33.148438 11.765625 -33.347656 15.078125 -32.921875 C 18.390625 -32.503906 20.988281 -30.804688 22.875 -27.828125 C 24.144531 -25.816406 24.726562 -23.675781 24.625 -21.40625 C 24.53125 -19.132812 23.765625 -16.9375 22.328125 -14.8125 C 20.898438 -12.6875 18.882812 -10.800781 16.28125 -9.15625 Z M 16.28125 -9.15625 "/></g></g></g></svg>