<svg xmlns="http://www.w3.org/2000/svg" xmlns:xlink="http://www.w3.org/1999/xlink" width="1080" zoomAndPan="magnify" viewBox="0 0 810 809.999993" height="1080" preserveAspectRatio="xMidYMid meet" version="1.2"><defs><clipPath id="cc8f6dac6b"><path d="M 143 347 L 260 347 L 260 464 L 143 464 Z M 143 347 "/></clipPath><clipPath id="d16fba9161"><path d="M 107.375 384.242188 L 223.253906 310.976562 L 296.519531 426.855469 L 180.640625 500.121094 Z M 107.375 384.242188 "/></clipPath><clipPath id="65333f8e2f"><path d="M 107.375 384.242188 L 223.253906 310.976562 L 296.519531 426.855469 L 180.640625 500.121094 Z M 107.375 384.242188 "/></clipPath><clipPath id="b9d58d46d6"><path d="M 144 361 L 168 361 L 168 431 L 144 431 Z M 144 361 "/></clipPath><clipPath id="331385bff8"><path d="M 107.375 384.242188 L 223.253906 310.976562 L 296.519531 426.855469 L 180.640625 500.121094 Z M 107.375 384.242188 "/></clipPath><clipPath id="d29b04ef66"><path d="M 107.375 384.242188 L 223.253906 310.976562 L 296.519531 426.855469 L 180.640625 500.121094 Z M 107.375 384.242188 "/></clipPath><clipPath id="cc76b6b248"><path d="M 236 380 L 260 380 L 260 451 L 236 451 Z M 236 380 "/></clipPath><clipPath id="cc49c4209a"><path d="M 107.375 384.242188 L 223.253906 310.976562 L 296.519531 426.855469 L 180.640625 500.121094 Z M 107.375 384.242188 "/></clipPath><clipPath id="f2dc783ba9"><path d="M 107.375 384.242188 L 223.253906 310.976562 L 296.519531 426.855469 L 180.640625 500.121094 Z M 107.375 384.242188 "/></clipPath><clipPath id="b43382e7a8"><path d="M 177 348 L 247 348 L 247 372 L 177 372 Z M 177 348 "/></clipPath><clipPath id="8ba705ddca"><path d="M 107.375 384.242188 L 223.253906 310.976562 L 296.519531 426.855469 L 180.640625 500.121094 Z M 107.375 384.242188 "/></clipPath><clipPath id="2c85bb9e32"><path d="M 107.375 384.242188 L 223.253906 310.976562 L 296.519531 426.855469 L 180.640625 500.121094 Z M 107.375 384.242188 "/></clipPath><clipPath id="ed37847702"><path d="M 157 440 L 227 440 L 227 464 L 157 464 Z M 157 440 "/></clipPath><clipPath id="df55ef7602"><path d="M 107.375 384.242188 L 223.253906 310.976562 L 296.519531 426.855469 L 180.640625 500.121094 Z M 107.375 384.242188 "/></clipPath><clipPath id="427fbb1de2"><path d="M 107.375 384.242188 L 223.253906 310.976562 L 296.519531 426.855469 L 180.640625 500.121094 Z M 107.375 384.242188 "/></clipPath></defs><g id="f63ca5991a"><g style="fill:#ff3131;fill-opacity:1;"><g transform="translate(46.680539, 446.573619)"><path style="stroke:none" d="M 6.0625 -9.625 C 9.8125 -9.625 12.203125 -10.660156 13.234375 -12.734375 C 14.273438 -14.804688 14.796875 -18.160156 14.796875 -22.796875 L 14.796875 -47.671875 C 14.796875 -52.109375 14.992188 -56.300781 15.390625 -60.25 L 5.03125 -59.796875 L 5.03125 -71.0625 C 11.25 -71.0625 16.28125 -71.503906 20.125 -72.390625 C 23.976562 -73.273438 26.546875 -74.3125 27.828125 -75.5 L 35.078125 -75.5 C 35.078125 -75.300781 35.273438 -72.832031 35.671875 -68.09375 L 35.96875 -68.09375 C 38.832031 -70.363281 42.359375 -72.3125 46.546875 -73.9375 C 50.742188 -75.570312 54.320312 -76.390625 57.28125 -76.390625 C 66.269531 -76.390625 72.6875 -73.820312 76.53125 -68.6875 C 80.382812 -63.550781 82.3125 -55.210938 82.3125 -43.671875 L 82.3125 -23.828125 C 82.3125 -19.097656 82.113281 -14.757812 81.71875 -10.8125 C 84.96875 -11.101562 88.171875 -11.25 91.328125 -11.25 L 91.328125 0 L 52.546875 0 L 52.546875 -9.625 C 56.296875 -9.625 58.710938 -10.660156 59.796875 -12.734375 C 60.890625 -14.804688 61.4375 -18.160156 61.4375 -22.796875 L 61.28125 -43.8125 C 61.28125 -50.332031 60.367188 -55.117188 58.546875 -58.171875 C 56.722656 -61.234375 53.640625 -62.765625 49.296875 -62.765625 C 46.921875 -62.765625 44.5 -62.242188 42.03125 -61.203125 C 39.570312 -60.171875 37.503906 -58.863281 35.828125 -57.28125 L 35.828125 -23.828125 C 35.828125 -19.097656 35.628906 -14.757812 35.234375 -10.8125 C 38.390625 -11.101562 41.597656 -11.25 44.859375 -11.25 L 44.859375 0 L 6.0625 0 Z M 6.0625 -9.625 "/></g></g><g style="fill:#ff3131;fill-opacity:1;"><g transform="translate(140.842665, 446.573619)"><path style="stroke:none" d=""/></g></g><g style="fill:#ff3131;fill-opacity:1;"><g transform="translate(179.774521, 446.573619)"><path style="stroke:none" d=""/></g></g><g style="fill:#ff3131;fill-opacity:1;"><g transform="translate(218.706377, 446.573619)"><path style="stroke:none" d=""/></g></g><g style="fill:#ff3131;fill-opacity:1;"><g transform="translate(257.645067, 446.573619)"><path style="stroke:none" d="M 6.0625 -9.625 C 9.8125 -9.625 12.203125 -10.660156 13.234375 -12.734375 C 14.273438 -14.804688 14.796875 -18.160156 14.796875 -22.796875 L 14.796875 -47.671875 C 14.796875 -52.109375 14.992188 -56.300781 15.390625 -60.25 L 5.03125 -59.796875 L 5.03125 -71.0625 C 11.25 -71.0625 16.28125 -71.503906 20.125 -72.390625 C 23.976562 -73.273438 26.546875 -74.3125 27.828125 -75.5 L 35.078125 -75.5 C 35.273438 -74.019531 35.421875 -72.09375 35.515625 -69.71875 C 35.617188 -67.351562 35.671875 -65.035156 35.671875 -62.765625 L 35.96875 -62.765625 C 42.675781 -71.847656 49.78125 -76.390625 57.28125 -76.390625 C 61.03125 -76.390625 64.113281 -75.351562 66.53125 -73.28125 C 68.957031 -71.207031 70.171875 -68.144531 70.171875 -64.09375 C 70.171875 -61.53125 69.332031 -59.160156 67.65625 -56.984375 C 65.976562 -54.816406 63.457031 -53.734375 60.09375 -53.734375 C 57.632812 -53.734375 55.441406 -54.375 53.515625 -55.65625 C 51.585938 -56.9375 50.476562 -59.160156 50.1875 -62.328125 C 47.414062 -62.328125 44.570312 -60.722656 41.65625 -57.515625 C 38.75 -54.304688 36.804688 -51.125 35.828125 -47.96875 L 35.828125 -23.828125 C 35.828125 -19.097656 35.628906 -14.757812 35.234375 -10.8125 C 38.390625 -11.101562 41.597656 -11.25 44.859375 -11.25 L 44.859375 0 L 6.0625 0 Z M 6.0625 -9.625 "/></g></g><g style="fill:#ff3131;fill-opacity:1;"><g transform="translate(328.699405, 446.573619)"><path style="stroke:none" d="M 35.375 2.375 C 19.976562 2.375 12.28125 -7.097656 12.28125 -26.046875 L 12.578125 -61.734375 L 2.515625 -61.734375 L 2.515625 -74.015625 C 5.671875 -74.015625 8.65625 -75 11.46875 -76.96875 C 14.28125 -78.945312 16.671875 -81.363281 18.640625 -84.21875 C 20.617188 -87.082031 22.003906 -89.847656 22.796875 -92.515625 L 33.75 -92.515625 L 33.609375 -74.015625 L 52.40625 -74.015625 L 52.40625 -62.625 L 33.609375 -62.171875 L 33.453125 -25.75 C 33.453125 -16.175781 36.414062 -11.390625 42.34375 -11.390625 C 47.070312 -11.390625 51.5625 -14.351562 55.8125 -20.28125 L 62.90625 -13.625 C 58.269531 -6.8125 53.632812 -2.441406 49 -0.515625 C 44.363281 1.410156 39.820312 2.375 35.375 2.375 Z M 35.375 2.375 "/></g></g><g style="fill:#ff3131;fill-opacity:1;"><g transform="translate(389.835728, 446.573619)"><path style="stroke:none" d="M 3.703125 -9.625 C 6.367188 -9.625 8.316406 -10.140625 9.546875 -11.171875 C 10.773438 -12.210938 11.5625 -13.617188 11.90625 -15.390625 C 12.257812 -17.171875 12.4375 -19.640625 12.4375 -22.796875 L 12.4375 -83.640625 C 12.4375 -88.378906 12.632812 -92.671875 13.03125 -96.515625 L 2.671875 -96.078125 L 2.671875 -107.328125 C 8.878906 -107.328125 13.90625 -107.769531 17.75 -108.65625 C 21.601562 -109.539062 24.175781 -110.578125 25.46875 -111.765625 L 33.453125 -111.765625 L 33.453125 -68.09375 C 36.316406 -70.363281 39.867188 -72.3125 44.109375 -73.9375 C 48.359375 -75.570312 52.007812 -76.390625 55.0625 -76.390625 C 63.945312 -76.390625 70.3125 -73.820312 74.15625 -68.6875 C 78.007812 -63.550781 79.984375 -55.210938 80.078125 -43.671875 L 80.078125 -23.828125 C 80.078125 -19.097656 79.882812 -14.757812 79.5 -10.8125 C 82.65625 -11.101562 85.859375 -11.25 89.109375 -11.25 L 89.109375 0 L 50.1875 0 L 50.1875 -9.625 C 53.9375 -9.625 56.351562 -10.660156 57.4375 -12.734375 C 58.519531 -14.804688 59.0625 -18.160156 59.0625 -22.796875 L 58.921875 -43.8125 C 58.921875 -50.332031 57.957031 -55.117188 56.03125 -58.171875 C 54.101562 -61.234375 51.066406 -62.765625 46.921875 -62.765625 C 44.554688 -62.765625 42.140625 -62.242188 39.671875 -61.203125 C 37.203125 -60.171875 35.128906 -58.863281 33.453125 -57.28125 L 33.453125 -23.828125 C 33.453125 -19.097656 33.253906 -14.757812 32.859375 -10.8125 C 36.117188 -11.101562 39.328125 -11.25 42.484375 -11.25 L 42.484375 0 L 3.703125 0 Z M 3.703125 -9.625 "/></g></g><g style="fill:#ff3131;fill-opacity:1;"><g transform="translate(481.762273, 446.573619)"><path style="stroke:none" d="M 40.109375 2.375 C 35.867188 2.375 31.722656 1.828125 27.671875 0.734375 C 23.628906 -0.347656 20.472656 -1.726562 18.203125 -3.40625 L 18.0625 -3.40625 L 18.5 1.03125 L 7.25 1.03125 L 6.65625 -24.421875 L 16.28125 -24.421875 C 16.78125 -19.878906 19.175781 -16.054688 23.46875 -12.953125 C 27.757812 -9.847656 33.015625 -8.296875 39.234375 -8.296875 C 41.992188 -8.296875 44.382812 -8.9375 46.40625 -10.21875 C 48.425781 -11.5 49.4375 -13.320312 49.4375 -15.6875 C 49.4375 -17.46875 48.796875 -18.945312 47.515625 -20.125 C 46.234375 -21.3125 44.703125 -22.300781 42.921875 -23.09375 C 41.148438 -23.882812 37.597656 -25.316406 32.265625 -27.390625 C 25.953125 -29.859375 21.21875 -31.878906 18.0625 -33.453125 C 14.90625 -35.035156 12.066406 -37.378906 9.546875 -40.484375 C 7.023438 -43.597656 5.765625 -47.617188 5.765625 -52.546875 C 5.765625 -56.597656 6.773438 -60.421875 8.796875 -64.015625 C 10.828125 -67.617188 13.9375 -70.582031 18.125 -72.90625 C 22.320312 -75.226562 27.484375 -76.390625 33.609375 -76.390625 C 36.460938 -76.390625 39.566406 -75.941406 42.921875 -75.046875 C 46.285156 -74.160156 49.097656 -72.925781 51.359375 -71.34375 L 51.515625 -71.34375 L 51.359375 -75.640625 L 62.625 -75.640625 L 62.625 -49.4375 L 53 -49.4375 C 52.101562 -54.570312 49.828125 -58.617188 46.171875 -61.578125 C 42.523438 -64.535156 38.039062 -66.015625 32.71875 -66.015625 C 29.945312 -66.015625 27.625 -65.375 25.75 -64.09375 C 23.875 -62.8125 22.9375 -60.835938 22.9375 -58.171875 C 22.9375 -55.410156 24.019531 -53.363281 26.1875 -52.03125 C 28.363281 -50.695312 32.019531 -49.191406 37.15625 -47.515625 C 37.75 -47.421875 39.03125 -47.023438 41 -46.328125 C 49.394531 -43.367188 55.835938 -39.914062 60.328125 -35.96875 C 64.816406 -32.019531 67.0625 -26.835938 67.0625 -20.421875 C 67.0625 -15.492188 65.800781 -11.328125 63.28125 -7.921875 C 60.769531 -4.515625 57.460938 -1.945312 53.359375 -0.21875 C 49.265625 1.507812 44.847656 2.375 40.109375 2.375 Z M 40.109375 2.375 "/></g></g><g style="fill:#ff3131;fill-opacity:1;"><g transform="translate(553.556743, 446.573619)"><path style="stroke:none" d="M 35.375 2.375 C 19.976562 2.375 12.28125 -7.097656 12.28125 -26.046875 L 12.578125 -61.734375 L 2.515625 -61.734375 L 2.515625 -74.015625 C 5.671875 -74.015625 8.65625 -75 11.46875 -76.96875 C 14.28125 -78.945312 16.671875 -81.363281 18.640625 -84.21875 C 20.617188 -87.082031 22.003906 -89.847656 22.796875 -92.515625 L 33.75 -92.515625 L 33.609375 -74.015625 L 52.40625 -74.015625 L 52.40625 -62.625 L 33.609375 -62.171875 L 33.453125 -25.75 C 33.453125 -16.175781 36.414062 -11.390625 42.34375 -11.390625 C 47.070312 -11.390625 51.5625 -14.351562 55.8125 -20.28125 L 62.90625 -13.625 C 58.269531 -6.8125 53.632812 -2.441406 49 -0.515625 C 44.363281 1.410156 39.820312 2.375 35.375 2.375 Z M 35.375 2.375 "/></g></g><g style="fill:#ff3131;fill-opacity:1;"><g transform="translate(614.693066, 446.573619)"><path style="stroke:none" d="M 24.578125 2.375 C 18.359375 2.375 13.445312 0.523438 9.84375 -3.171875 C 6.238281 -6.878906 4.4375 -11.59375 4.4375 -17.3125 C 4.4375 -26 8.484375 -32.585938 16.578125 -37.078125 C 24.671875 -41.566406 34.390625 -44.0625 45.734375 -44.5625 L 45.734375 -52.25 C 45.734375 -61.226562 42.378906 -65.71875 35.671875 -65.71875 C 31.328125 -65.71875 27.773438 -64.335938 25.015625 -61.578125 C 26.203125 -60.203125 26.796875 -58.328125 26.796875 -55.953125 C 26.796875 -53.585938 25.976562 -51.46875 24.34375 -49.59375 C 22.71875 -47.71875 20.328125 -46.78125 17.171875 -46.78125 C 14.210938 -46.78125 11.894531 -47.738281 10.21875 -49.65625 C 8.539062 -51.582031 7.703125 -53.976562 7.703125 -56.84375 C 7.703125 -60.695312 9.082031 -64.101562 11.84375 -67.0625 C 14.601562 -70.019531 18.375 -72.3125 23.15625 -73.9375 C 27.945312 -75.570312 33.207031 -76.390625 38.9375 -76.390625 C 57.1875 -76.390625 66.3125 -66.960938 66.3125 -48.109375 L 66.171875 -23.828125 C 66.171875 -19.097656 65.972656 -14.757812 65.578125 -10.8125 C 68.835938 -11.101562 72.046875 -11.25 75.203125 -11.25 L 75.203125 0 L 47.21875 0 C 47.019531 -1.28125 46.820312 -3.550781 46.625 -6.8125 L 46.484375 -6.8125 C 40.460938 -0.6875 33.160156 2.375 24.578125 2.375 Z M 33.90625 -12.140625 C 38.34375 -12.140625 42.238281 -13.914062 45.59375 -17.46875 L 45.59375 -34.046875 C 39.769531 -33.453125 34.957031 -31.96875 31.15625 -29.59375 C 27.363281 -27.226562 25.46875 -24.023438 25.46875 -19.984375 C 25.46875 -17.316406 26.28125 -15.34375 27.90625 -14.0625 C 29.53125 -12.78125 31.53125 -12.140625 33.90625 -12.140625 Z M 33.90625 -12.140625 "/></g></g><g style="fill:#ff3131;fill-opacity:1;"><g transform="translate(692.260732, 446.573619)"><path style="stroke:none" d="M 6.0625 -9.625 C 9.8125 -9.625 12.203125 -10.660156 13.234375 -12.734375 C 14.273438 -14.804688 14.796875 -18.160156 14.796875 -22.796875 L 14.796875 -47.671875 C 14.796875 -52.109375 14.992188 -56.300781 15.390625 -60.25 L 5.03125 -59.796875 L 5.03125 -71.0625 C 11.25 -71.0625 16.28125 -71.503906 20.125 -72.390625 C 23.976562 -73.273438 26.546875 -74.3125 27.828125 -75.5 L 35.078125 -75.5 C 35.273438 -74.019531 35.421875 -72.09375 35.515625 -69.71875 C 35.617188 -67.351562 35.671875 -65.035156 35.671875 -62.765625 L 35.96875 -62.765625 C 42.675781 -71.847656 49.78125 -76.390625 57.28125 -76.390625 C 61.03125 -76.390625 64.113281 -75.351562 66.53125 -73.28125 C 68.957031 -71.207031 70.171875 -68.144531 70.171875 -64.09375 C 70.171875 -61.53125 69.332031 -59.160156 67.65625 -56.984375 C 65.976562 -54.816406 63.457031 -53.734375 60.09375 -53.734375 C 57.632812 -53.734375 55.441406 -54.375 53.515625 -55.65625 C 51.585938 -56.9375 50.476562 -59.160156 50.1875 -62.328125 C 47.414062 -62.328125 44.570312 -60.722656 41.65625 -57.515625 C 38.75 -54.304688 36.804688 -51.125 35.828125 -47.96875 L 35.828125 -23.828125 C 35.828125 -19.097656 35.628906 -14.757812 35.234375 -10.8125 C 38.390625 -11.101562 41.597656 -11.25 44.859375 -11.25 L 44.859375 0 L 6.0625 0 Z M 6.0625 -9.625 "/></g></g><g clip-rule="nonzero" clip-path="url(#cc8f6dac6b)"><g clip-rule="nonzero" clip-path="url(#d16fba9161)"><g clip-rule="nonzero" clip-path="url(#65333f8e2f)"><path style=" stroke:none;fill-rule:nonzero;fill:#ff3131;fill-opacity:1;" d="M 259.890625 369.085938 C 259.871094 369.054688 259.839844 369.074219 259.824219 369.046875 C 259.804688 369.015625 259.816406 368.96875 259.769531 368.957031 C 259.75 368.929688 259.671875 368.9375 259.636719 368.878906 C 259.570312 368.839844 259.503906 368.800781 259.410156 368.777344 C 259.34375 368.738281 259.296875 368.726562 259.25 368.714844 C 259.171875 368.722656 259.097656 368.730469 259.019531 368.738281 C 258.960938 368.777344 258.894531 368.738281 258.820312 368.746094 L 210.515625 387.871094 L 211.246094 367.023438 C 211.230469 366.996094 211.191406 366.9375 211.222656 366.917969 C 211.183594 366.863281 211.195312 366.8125 211.160156 366.753906 C 211.140625 366.726562 211.121094 366.699219 211.09375 366.714844 C 211.105469 366.667969 211.054688 366.65625 211.039062 366.628906 C 210.972656 366.589844 210.984375 366.542969 210.933594 366.53125 C 210.917969 366.5 210.886719 366.519531 210.886719 366.519531 C 210.859375 366.539062 210.859375 366.539062 210.839844 366.507812 C 210.8125 366.527344 210.8125 366.527344 210.792969 366.5 C 210.765625 366.515625 210.746094 366.488281 210.746094 366.488281 C 210.714844 366.507812 210.6875 366.523438 210.640625 366.515625 C 210.609375 366.53125 210.5625 366.523438 210.503906 366.558594 L 210.375 366.640625 C 210.34375 366.660156 210.335938 366.707031 210.277344 366.742188 C 210.292969 366.773438 210.238281 366.808594 210.207031 366.828125 L 201.929688 385.976562 L 166.394531 347.921875 C 166.378906 347.894531 166.300781 347.898438 166.265625 347.84375 C 166.199219 347.800781 166.132812 347.761719 166.039062 347.742188 C 165.972656 347.703125 165.945312 347.71875 165.878906 347.679688 C 165.800781 347.6875 165.722656 347.695312 165.667969 347.730469 C 165.589844 347.738281 165.554688 347.683594 165.496094 347.71875 C 165.449219 347.707031 165.4375 347.753906 165.40625 347.773438 C 165.378906 347.792969 165.359375 347.761719 165.332031 347.78125 C 165.300781 347.800781 165.292969 347.847656 165.292969 347.847656 C 165.261719 347.867188 165.214844 347.855469 165.203125 347.902344 C 165.144531 347.9375 165.152344 348.015625 165.144531 348.0625 C 165.054688 348.117188 165.015625 348.183594 165.003906 348.230469 C 164.984375 348.328125 164.957031 348.34375 164.960938 348.421875 C 164.96875 348.496094 164.976562 348.574219 164.984375 348.652344 C 164.992188 348.726562 164.984375 348.773438 164.972656 348.820312 L 184.117188 397.15625 L 163.242188 396.441406 C 163.242188 396.441406 163.214844 396.460938 163.164062 396.449219 C 163.136719 396.46875 163.058594 396.476562 163.03125 396.492188 C 162.972656 396.53125 162.972656 396.53125 162.945312 396.546875 C 162.914062 396.566406 162.875 396.632812 162.863281 396.679688 C 162.835938 396.699219 162.835938 396.699219 162.804688 396.714844 C 162.777344 396.734375 162.796875 396.765625 162.765625 396.78125 C 162.785156 396.8125 162.785156 396.8125 162.753906 396.828125 L 162.773438 396.859375 C 162.746094 396.878906 162.714844 396.894531 162.734375 396.925781 L 162.789062 397.011719 C 162.777344 397.058594 162.785156 397.136719 162.785156 397.136719 L 162.859375 397.253906 C 162.90625 397.261719 162.925781 397.292969 162.992188 397.332031 C 163.011719 397.359375 163.027344 397.390625 163.027344 397.390625 L 182.195312 405.695312 L 144.171875 441.148438 C 144.160156 441.199219 144.167969 441.273438 144.109375 441.3125 C 144.070312 441.375 144.03125 441.441406 143.992188 441.507812 C 143.949219 441.574219 143.96875 441.601562 143.976562 441.679688 C 143.957031 441.773438 143.964844 441.851562 143.972656 441.925781 C 144.007812 441.984375 143.96875 442.050781 143.984375 442.082031 C 143.976562 442.128906 144.023438 442.136719 144.042969 442.167969 C 144.058594 442.195312 144.03125 442.214844 144.050781 442.242188 C 144.066406 442.273438 144.097656 442.253906 144.113281 442.285156 C 144.132812 442.3125 144.121094 442.359375 144.171875 442.371094 C 144.207031 442.429688 144.285156 442.421875 144.320312 442.480469 C 144.386719 442.519531 144.453125 442.558594 144.527344 442.550781 C 144.546875 442.582031 144.59375 442.589844 144.640625 442.601562 C 144.738281 442.625 144.84375 442.597656 144.933594 442.582031 C 144.992188 442.542969 145.058594 442.582031 145.105469 442.59375 L 193.4375 423.445312 L 192.703125 444.296875 L 192.761719 444.382812 C 192.75 444.429688 192.785156 444.488281 192.773438 444.535156 C 192.792969 444.5625 192.792969 444.5625 192.859375 444.605469 C 192.878906 444.632812 192.914062 444.691406 192.960938 444.703125 C 192.980469 444.730469 193 444.761719 193 444.761719 C 193.015625 444.789062 193.046875 444.769531 193.09375 444.78125 C 193.09375 444.78125 193.09375 444.78125 193.113281 444.808594 L 193.140625 444.792969 C 193.1875 444.804688 193.207031 444.832031 193.234375 444.8125 C 193.234375 444.8125 193.292969 444.777344 193.3125 444.804688 C 193.371094 444.769531 193.417969 444.78125 193.429688 444.730469 C 193.476562 444.742188 193.476562 444.742188 193.503906 444.722656 C 193.5625 444.6875 193.601562 444.621094 193.613281 444.574219 L 193.699219 444.519531 L 201.976562 425.371094 L 237.433594 463.394531 C 237.496094 463.433594 237.546875 463.445312 237.609375 463.484375 C 237.675781 463.523438 237.742188 463.566406 237.789062 463.574219 C 237.835938 463.585938 237.855469 463.617188 237.902344 463.625 C 238 463.648438 238.105469 463.621094 238.222656 463.585938 C 238.28125 463.550781 238.320312 463.609375 238.378906 463.570312 C 238.453125 463.5625 238.484375 463.542969 238.539062 463.507812 C 238.570312 463.488281 238.628906 463.453125 238.667969 463.386719 C 238.695312 463.367188 238.6875 463.292969 238.746094 463.253906 C 238.816406 463.171875 238.855469 463.105469 238.890625 463 C 238.902344 462.953125 238.914062 462.90625 238.894531 462.878906 C 238.933594 462.8125 238.925781 462.734375 238.890625 462.675781 C 238.882812 462.601562 238.921875 462.535156 238.886719 462.476562 L 219.765625 414.125 L 240.617188 414.859375 C 240.671875 414.820312 240.703125 414.800781 240.75 414.8125 C 240.777344 414.792969 240.828125 414.804688 240.855469 414.785156 C 240.882812 414.769531 240.882812 414.769531 240.914062 414.75 C 240.972656 414.714844 241.011719 414.648438 241.023438 414.601562 L 241.109375 414.546875 C 241.121094 414.496094 241.121094 414.496094 241.128906 414.449219 C 241.140625 414.402344 241.140625 414.402344 241.132812 414.328125 C 241.132812 414.328125 241.117188 414.296875 241.125 414.25 C 241.089844 414.191406 241.101562 414.144531 241.0625 414.085938 C 241.042969 414.058594 241.042969 414.058594 240.996094 414.046875 C 241.007812 414 240.960938 413.988281 240.941406 413.960938 C 240.894531 413.949219 240.886719 413.871094 240.859375 413.890625 L 221.691406 405.582031 L 259.6875 370.148438 C 259.726562 370.082031 259.71875 370.007812 259.777344 369.96875 C 259.816406 369.902344 259.886719 369.820312 259.921875 369.714844 C 259.933594 369.667969 259.941406 369.621094 259.925781 369.589844 C 259.964844 369.527344 259.925781 369.46875 259.917969 369.390625 C 259.910156 369.316406 259.953125 369.25 259.914062 369.191406 C 259.925781 369.144531 259.878906 369.132812 259.859375 369.101562 C 259.878906 369.132812 259.90625 369.113281 259.890625 369.085938 Z M 197.792969 419.941406 L 193.46875 421.660156 L 153.269531 437.554688 L 193.789062 411.933594 L 200.589844 407.632812 Z M 195.722656 397.589844 L 200.023438 404.390625 L 187.71875 401.59375 L 186 397.269531 L 170.105469 357.070312 Z M 217.859375 414.191406 L 233.753906 454.390625 L 208.132812 413.871094 L 203.832031 407.070312 L 216.140625 409.867188 Z M 210.070312 399.527344 L 203.269531 403.824219 L 206.066406 391.519531 L 210.390625 389.800781 L 250.589844 373.90625 Z M 210.070312 399.527344 "/></g></g></g><g clip-rule="nonzero" clip-path="url(#b9d58d46d6)"><g clip-rule="nonzero" clip-path="url(#331385bff8)"><g clip-rule="nonzero" clip-path="url(#d29b04ef66)"><path style=" stroke:none;fill-rule:nonzero;fill:#ff3131;fill-opacity:1;" d="M 167.28125 364.574219 L 165.925781 361.078125 C 145.238281 377.714844 138.703125 406.667969 150.238281 430.601562 L 152.980469 428.054688 C 142.980469 406.160156 148.859375 380.066406 167.28125 364.574219 Z M 167.28125 364.574219 "/></g></g></g><g clip-rule="nonzero" clip-path="url(#cc76b6b248)"><g clip-rule="nonzero" clip-path="url(#cc49c4209a)"><g clip-rule="nonzero" clip-path="url(#f2dc783ba9)"><path style=" stroke:none;fill-rule:nonzero;fill:#ff3131;fill-opacity:1;" d="M 236.546875 446.90625 L 237.902344 450.402344 C 258.644531 433.75 265.199219 404.765625 253.613281 380.84375 L 250.878906 383.40625 C 260.878906 405.300781 255.015625 431.425781 236.546875 446.90625 Z M 236.546875 446.90625 "/></g></g></g><g clip-rule="nonzero" clip-path="url(#b43382e7a8)"><g clip-rule="nonzero" clip-path="url(#8ba705ddca)"><g clip-rule="nonzero" clip-path="url(#2c85bb9e32)"><path style=" stroke:none;fill-rule:nonzero;fill:#ff3131;fill-opacity:1;" d="M 243.085938 371.082031 L 246.582031 369.726562 C 229.949219 349.015625 200.9375 342.480469 177.042969 354.046875 L 179.589844 356.789062 C 201.480469 346.753906 227.59375 352.660156 243.085938 371.082031 Z M 243.085938 371.082031 "/></g></g></g><g clip-rule="nonzero" clip-path="url(#ed37847702)"><g clip-rule="nonzero" clip-path="url(#df55ef7602)"><g clip-rule="nonzero" clip-path="url(#427fbb1de2)"><path style=" stroke:none;fill-rule:nonzero;fill:#ff3131;fill-opacity:1;" d="M 160.753906 440.347656 L 157.273438 441.734375 C 173.910156 462.445312 202.921875 468.980469 226.816406 457.414062 L 224.253906 454.679688 C 202.359375 464.679688 176.234375 458.816406 160.753906 440.347656 Z M 160.753906 440.347656 "/></g></g></g><g style="fill:#ff3131;fill-opacity:1;"><g transform="translate(158.256348, 346.758097)"><path style="stroke:none" d="M 0.125 -6.765625 C -0.238281 -6.890625 -0.648438 -7.046875 -1.109375 -7.234375 L -1.125 -7.234375 L 1.25 -3.546875 C 1.539062 -3.097656 1.75 -2.726562 1.875 -2.4375 C 2.125 -2.613281 2.421875 -2.8125 2.765625 -3.03125 L 3.34375 -2.109375 L 0.609375 -0.390625 L 0.109375 -1.1875 C 0.316406 -1.332031 0.460938 -1.457031 0.546875 -1.5625 C 0.628906 -1.675781 0.65625 -1.828125 0.625 -2.015625 C 0.601562 -2.203125 0.5 -2.445312 0.3125 -2.75 L -2.625 -7.34375 C -2.96875 -7.875 -3.175781 -8.238281 -3.25 -8.4375 L -4.140625 -7.84375 L -4.734375 -8.78125 L -2.859375 -9.953125 L 3.75 -7.640625 C 4.351562 -7.410156 4.875 -7.207031 5.3125 -7.03125 L 2.90625 -10.84375 C 2.570312 -11.351562 2.359375 -11.71875 2.265625 -11.9375 L 1.390625 -11.328125 L 0.796875 -12.265625 L 3.53125 -14 L 4.03125 -13.203125 C 3.832031 -13.054688 3.6875 -12.925781 3.59375 -12.8125 C 3.507812 -12.695312 3.484375 -12.546875 3.515625 -12.359375 C 3.546875 -12.179688 3.65625 -11.9375 3.84375 -11.625 L 8.078125 -4.9375 L 7.046875 -4.28125 Z M 0.125 -6.765625 "/></g></g><g style="fill:#ff3131;fill-opacity:1;"><g transform="translate(241.135007, 475.52099)"><path style="stroke:none" d="M 3.8125 -2.125 C 3.488281 -1.914062 3.101562 -1.75 2.65625 -1.625 C 2.21875 -1.5 1.785156 -1.425781 1.359375 -1.40625 L 1.34375 -1.40625 L 1.6875 -0.921875 L 0.78125 -0.34375 L -0.984375 -3.140625 L -0.203125 -3.640625 C 0.316406 -3.054688 0.882812 -2.710938 1.5 -2.609375 C 2.125 -2.515625 2.722656 -2.648438 3.296875 -3.015625 C 3.710938 -3.285156 3.984375 -3.613281 4.109375 -4 C 4.242188 -4.382812 4.210938 -4.734375 4.015625 -5.046875 C 3.859375 -5.296875 3.628906 -5.457031 3.328125 -5.53125 C 3.035156 -5.613281 2.75 -5.632812 2.46875 -5.59375 C 2.1875 -5.5625 1.738281 -5.488281 1.125 -5.375 C 0.03125 -5.164062 -0.890625 -5.140625 -1.640625 -5.296875 C -2.398438 -5.453125 -3.007812 -5.894531 -3.46875 -6.625 C -3.695312 -6.988281 -3.828125 -7.398438 -3.859375 -7.859375 C -3.898438 -8.328125 -3.78125 -8.804688 -3.5 -9.296875 C -3.226562 -9.796875 -2.757812 -10.257812 -2.09375 -10.6875 C -1.75 -10.90625 -1.359375 -11.082031 -0.921875 -11.21875 C -0.484375 -11.351562 -0.0859375 -11.410156 0.265625 -11.390625 L 0.28125 -11.390625 L -0.078125 -11.84375 L 0.859375 -12.4375 L 2.625 -9.640625 L 1.828125 -9.140625 C 1.304688 -9.742188 0.757812 -10.101562 0.1875 -10.21875 C -0.382812 -10.332031 -0.945312 -10.210938 -1.5 -9.859375 C -1.851562 -9.628906 -2.097656 -9.332031 -2.234375 -8.96875 C -2.367188 -8.613281 -2.34375 -8.296875 -2.15625 -8.015625 C -1.9375 -7.660156 -1.601562 -7.453125 -1.15625 -7.390625 C -0.707031 -7.335938 -0.0390625 -7.390625 0.84375 -7.546875 C 1.863281 -7.742188 2.753906 -7.789062 3.515625 -7.6875 C 4.285156 -7.59375 4.894531 -7.195312 5.34375 -6.5 C 5.644531 -6.019531 5.78125 -5.515625 5.75 -4.984375 C 5.726562 -4.460938 5.550781 -3.953125 5.21875 -3.453125 C 4.882812 -2.953125 4.414062 -2.507812 3.8125 -2.125 Z M 3.8125 -2.125 "/></g></g><g style="fill:#ff3131;fill-opacity:1;"><g transform="translate(544.944539, 494.681917)"><path style="stroke:none" d="M 1.3125 8.046875 C 2.382812 8.046875 3.078125 7.75 3.390625 7.15625 C 3.703125 6.5625 3.859375 5.601562 3.859375 4.28125 L 3.859375 -13.625 C 3.859375 -14.894531 3.910156 -16.097656 4.015625 -17.234375 L 1.015625 -17.09375 L 1.015625 -20.3125 C 2.796875 -20.3125 4.234375 -20.4375 5.328125 -20.6875 C 6.429688 -20.945312 7.164062 -21.25 7.53125 -21.59375 L 9.609375 -21.59375 C 9.660156 -21.113281 9.726562 -20.4375 9.8125 -19.5625 L 9.859375 -19.5625 C 11.609375 -21.082031 13.5 -21.84375 15.53125 -21.84375 C 17.226562 -21.84375 18.71875 -21.40625 20 -20.53125 C 21.28125 -19.65625 22.28125 -18.40625 23 -16.78125 C 23.71875 -15.15625 24.078125 -13.269531 24.078125 -11.125 C 24.078125 -8.875 23.640625 -6.851562 22.765625 -5.0625 C 21.890625 -3.269531 20.65625 -1.863281 19.0625 -0.84375 C 17.46875 0.164062 15.644531 0.671875 13.59375 0.671875 C 12.488281 0.671875 11.226562 0.421875 9.8125 -0.078125 L 9.8125 3.984375 C 9.8125 5.191406 9.769531 6.429688 9.6875 7.703125 C 10.5625 7.617188 11.46875 7.578125 12.40625 7.578125 L 12.40625 10.796875 L 1.3125 10.796875 Z M 12.734375 -2.5 C 16.148438 -2.5 17.859375 -5.164062 17.859375 -10.5 C 17.859375 -12.582031 17.484375 -14.359375 16.734375 -15.828125 C 15.992188 -17.296875 14.875 -18.03125 13.375 -18.03125 C 12.664062 -18.03125 11.992188 -17.859375 11.359375 -17.515625 C 10.722656 -17.179688 10.207031 -16.734375 9.8125 -16.171875 L 9.8125 -3.265625 C 10.101562 -3.066406 10.519531 -2.890625 11.0625 -2.734375 C 11.613281 -2.578125 12.171875 -2.5 12.734375 -2.5 Z M 12.734375 -2.5 "/></g></g><g style="fill:#ff3131;fill-opacity:1;"><g transform="translate(576.395219, 494.681917)"><path style="stroke:none" d="M 12.109375 0.671875 C 10.046875 0.671875 8.195312 0.234375 6.5625 -0.640625 C 4.925781 -1.515625 3.640625 -2.769531 2.703125 -4.40625 C 1.773438 -6.039062 1.3125 -7.941406 1.3125 -10.109375 C 1.3125 -12.398438 1.789062 -14.429688 2.75 -16.203125 C 3.707031 -17.984375 5 -19.367188 6.625 -20.359375 C 8.25 -21.347656 10.035156 -21.84375 11.984375 -21.84375 C 14.015625 -21.84375 15.832031 -21.40625 17.4375 -20.53125 C 19.050781 -19.65625 20.320312 -18.390625 21.25 -16.734375 C 22.175781 -15.085938 22.640625 -13.164062 22.640625 -10.96875 C 22.640625 -8.625 22.195312 -6.578125 21.3125 -4.828125 C 20.425781 -3.078125 19.1875 -1.722656 17.59375 -0.765625 C 16 0.191406 14.171875 0.671875 12.109375 0.671875 Z M 12.1875 -2.328125 C 13.738281 -2.328125 14.820312 -3.046875 15.4375 -4.484375 C 16.0625 -5.921875 16.375 -7.726562 16.375 -9.90625 C 16.375 -12.332031 16.019531 -14.429688 15.3125 -16.203125 C 14.613281 -17.984375 13.503906 -18.875 11.984375 -18.875 C 10.429688 -18.875 9.300781 -18.140625 8.59375 -16.671875 C 7.882812 -15.203125 7.53125 -13.398438 7.53125 -11.265625 C 7.53125 -8.804688 7.910156 -6.703125 8.671875 -4.953125 C 9.429688 -3.203125 10.601562 -2.328125 12.1875 -2.328125 Z M 12.1875 -2.328125 "/></g></g><g style="fill:#ff3131;fill-opacity:1;"><g transform="translate(606.195161, 494.681917)"><path style="stroke:none" d="M 1.0625 -2.75 C 1.820312 -2.75 2.378906 -2.894531 2.734375 -3.1875 C 3.085938 -3.488281 3.3125 -3.890625 3.40625 -4.390625 C 3.507812 -4.898438 3.5625 -5.609375 3.5625 -6.515625 L 3.5625 -23.921875 C 3.5625 -25.273438 3.613281 -26.5 3.71875 -27.59375 L 0.765625 -27.46875 L 0.765625 -30.6875 C 2.535156 -30.6875 3.972656 -30.8125 5.078125 -31.0625 C 6.179688 -31.320312 6.914062 -31.617188 7.28125 -31.953125 L 9.5625 -31.953125 L 9.5625 -6.8125 C 9.5625 -5.457031 9.503906 -4.21875 9.390625 -3.09375 C 10.328125 -3.175781 11.242188 -3.21875 12.140625 -3.21875 L 12.140625 0 L 1.0625 0 Z M 1.0625 -2.75 "/></g></g><g style="fill:#ff3131;fill-opacity:1;"><g transform="translate(625.413636, 494.681917)"><path style="stroke:none" d="M 7.703125 -25.359375 C 6.742188 -25.359375 5.953125 -25.6875 5.328125 -26.34375 C 4.710938 -27.007812 4.40625 -27.820312 4.40625 -28.78125 C 4.40625 -29.738281 4.726562 -30.5625 5.375 -31.25 C 6.019531 -31.945312 6.78125 -32.296875 7.65625 -32.296875 C 8.5625 -32.296875 9.316406 -31.957031 9.921875 -31.28125 C 10.535156 -30.601562 10.84375 -29.769531 10.84375 -28.78125 C 10.84375 -27.789062 10.550781 -26.972656 9.96875 -26.328125 C 9.382812 -25.679688 8.628906 -25.359375 7.703125 -25.359375 Z M 1.734375 -2.75 C 2.804688 -2.75 3.488281 -3.046875 3.78125 -3.640625 C 4.082031 -4.234375 4.234375 -5.191406 4.234375 -6.515625 L 4.234375 -13.546875 C 4.234375 -14.867188 4.289062 -16.097656 4.40625 -17.234375 L 1.4375 -17.09375 L 1.4375 -20.3125 C 3.21875 -20.3125 4.65625 -20.4375 5.75 -20.6875 C 6.851562 -20.945312 7.585938 -21.25 7.953125 -21.59375 L 10.25 -21.59375 L 10.25 -6.8125 C 10.25 -5.457031 10.191406 -4.21875 10.078125 -3.09375 C 10.972656 -3.175781 11.890625 -3.21875 12.828125 -3.21875 L 12.828125 0 L 1.734375 0 Z M 1.734375 -2.75 "/></g></g><g style="fill:#ff3131;fill-opacity:1;"><g transform="translate(645.097657, 494.681917)"><path style="stroke:none" d="M 10.109375 0.671875 C 5.710938 0.671875 3.515625 -2.035156 3.515625 -7.453125 L 3.59375 -17.65625 L 0.71875 -17.65625 L 0.71875 -21.15625 C 1.625 -21.15625 2.476562 -21.4375 3.28125 -22 C 4.082031 -22.570312 4.765625 -23.265625 5.328125 -24.078125 C 5.898438 -24.898438 6.296875 -25.691406 6.515625 -26.453125 L 9.65625 -26.453125 L 9.609375 -21.15625 L 14.984375 -21.15625 L 14.984375 -17.90625 L 9.609375 -17.78125 L 9.5625 -7.359375 C 9.5625 -4.628906 10.410156 -3.265625 12.109375 -3.265625 C 13.460938 -3.265625 14.742188 -4.109375 15.953125 -5.796875 L 17.984375 -3.890625 C 16.660156 -1.941406 15.332031 -0.691406 14 -0.140625 C 12.675781 0.398438 11.378906 0.671875 10.109375 0.671875 Z M 10.109375 0.671875 "/></g></g><g style="fill:#ff3131;fill-opacity:1;"><g transform="translate(668.591048, 494.681917)"><path style="stroke:none" d="M 7.703125 -25.359375 C 6.742188 -25.359375 5.953125 -25.6875 5.328125 -26.34375 C 4.710938 -27.007812 4.40625 -27.820312 4.40625 -28.78125 C 4.40625 -29.738281 4.726562 -30.5625 5.375 -31.25 C 6.019531 -31.945312 6.78125 -32.296875 7.65625 -32.296875 C 8.5625 -32.296875 9.316406 -31.957031 9.921875 -31.28125 C 10.535156 -30.601562 10.84375 -29.769531 10.84375 -28.78125 C 10.84375 -27.789062 10.550781 -26.972656 9.96875 -26.328125 C 9.382812 -25.679688 8.628906 -25.359375 7.703125 -25.359375 Z M 1.734375 -2.75 C 2.804688 -2.75 3.488281 -3.046875 3.78125 -3.640625 C 4.082031 -4.234375 4.234375 -5.191406 4.234375 -6.515625 L 4.234375 -13.546875 C 4.234375 -14.867188 4.289062 -16.097656 4.40625 -17.234375 L 1.4375 -17.09375 L 1.4375 -20.3125 C 3.21875 -20.3125 4.65625 -20.4375 5.75 -20.6875 C 6.851562 -20.945312 7.585938 -21.25 7.953125 -21.59375 L 10.25 -21.59375 L 10.25 -6.8125 C 10.25 -5.457031 10.191406 -4.21875 10.078125 -3.09375 C 10.972656 -3.175781 11.890625 -3.21875 12.828125 -3.21875 L 12.828125 0 L 1.734375 0 Z M 1.734375 -2.75 "/></g></g><g style="fill:#ff3131;fill-opacity:1;"><g transform="translate(688.444409, 494.681917)"><path style="stroke:none" d="M 11.71875 0.671875 C 9.800781 0.671875 8.050781 0.242188 6.46875 -0.609375 C 4.894531 -1.472656 3.640625 -2.710938 2.703125 -4.328125 C 1.773438 -5.953125 1.3125 -7.878906 1.3125 -10.109375 C 1.3125 -12.234375 1.773438 -14.191406 2.703125 -15.984375 C 3.640625 -17.773438 4.945312 -19.195312 6.625 -20.25 C 8.300781 -21.3125 10.195312 -21.84375 12.3125 -21.84375 C 14.039062 -21.84375 15.515625 -21.570312 16.734375 -21.03125 C 17.960938 -20.5 18.882812 -19.785156 19.5 -18.890625 C 20.125 -18.003906 20.4375 -17.054688 20.4375 -16.046875 C 20.4375 -15.171875 20.175781 -14.421875 19.65625 -13.796875 C 19.132812 -13.179688 18.425781 -12.875 17.53125 -12.875 C 16.59375 -12.875 15.890625 -13.15625 15.421875 -13.71875 C 14.960938 -14.28125 14.734375 -14.914062 14.734375 -15.625 C 14.734375 -16.269531 14.898438 -16.890625 15.234375 -17.484375 C 14.984375 -17.992188 14.570312 -18.351562 14 -18.5625 C 13.4375 -18.769531 12.875 -18.875 12.3125 -18.875 C 10.875 -18.875 9.707031 -18.21875 8.8125 -16.90625 C 7.925781 -15.59375 7.484375 -13.738281 7.484375 -11.34375 C 7.484375 -8.945312 7.945312 -6.972656 8.875 -5.421875 C 9.8125 -3.867188 11.285156 -3.09375 13.296875 -3.09375 C 14.421875 -3.09375 15.53125 -3.390625 16.625 -3.984375 C 17.726562 -4.578125 18.660156 -5.363281 19.421875 -6.34375 L 21.375 -4.4375 C 19.96875 -2.5 18.457031 -1.160156 16.84375 -0.421875 C 15.238281 0.304688 13.53125 0.671875 11.71875 0.671875 Z M 11.71875 0.671875 "/></g></g><g style="fill:#ff3131;fill-opacity:1;"><g transform="translate(716.382036, 494.681917)"><path style="stroke:none" d="M 11.46875 0.671875 C 10.257812 0.671875 9.078125 0.515625 7.921875 0.203125 C 6.765625 -0.0976562 5.859375 -0.488281 5.203125 -0.96875 L 5.15625 -0.96875 L 5.296875 0.296875 L 2.078125 0.296875 L 1.90625 -6.984375 L 4.65625 -6.984375 C 4.800781 -5.679688 5.484375 -4.585938 6.703125 -3.703125 C 7.929688 -2.816406 9.4375 -2.375 11.21875 -2.375 C 12.007812 -2.375 12.691406 -2.554688 13.265625 -2.921875 C 13.847656 -3.285156 14.140625 -3.804688 14.140625 -4.484375 C 14.140625 -4.992188 13.953125 -5.414062 13.578125 -5.75 C 13.210938 -6.09375 12.773438 -6.375 12.265625 -6.59375 C 11.765625 -6.820312 10.753906 -7.234375 9.234375 -7.828125 C 7.421875 -8.535156 6.0625 -9.113281 5.15625 -9.5625 C 4.257812 -10.019531 3.453125 -10.691406 2.734375 -11.578125 C 2.015625 -12.460938 1.65625 -13.613281 1.65625 -15.03125 C 1.65625 -16.1875 1.941406 -17.28125 2.515625 -18.3125 C 3.097656 -19.34375 3.988281 -20.1875 5.1875 -20.84375 C 6.382812 -21.507812 7.859375 -21.84375 9.609375 -21.84375 C 10.429688 -21.84375 11.320312 -21.710938 12.28125 -21.453125 C 13.238281 -21.203125 14.039062 -20.851562 14.6875 -20.40625 L 14.734375 -20.40625 L 14.6875 -21.625 L 17.90625 -21.625 L 17.90625 -14.140625 L 15.15625 -14.140625 C 14.894531 -15.609375 14.242188 -16.765625 13.203125 -17.609375 C 12.160156 -18.453125 10.878906 -18.875 9.359375 -18.875 C 8.566406 -18.875 7.898438 -18.691406 7.359375 -18.328125 C 6.828125 -17.960938 6.5625 -17.398438 6.5625 -16.640625 C 6.5625 -15.847656 6.867188 -15.257812 7.484375 -14.875 C 8.109375 -14.5 9.15625 -14.070312 10.625 -13.59375 C 10.789062 -13.5625 11.15625 -13.445312 11.71875 -13.25 C 14.125 -12.40625 15.96875 -11.414062 17.25 -10.28125 C 18.53125 -9.15625 19.171875 -7.675781 19.171875 -5.84375 C 19.171875 -4.425781 18.8125 -3.226562 18.09375 -2.25 C 17.375 -1.28125 16.425781 -0.550781 15.25 -0.0625 C 14.082031 0.425781 12.820312 0.671875 11.46875 0.671875 Z M 11.46875 0.671875 "/></g></g></g></svg>