<svg xmlns="http://www.w3.org/2000/svg" xmlns:xlink="http://www.w3.org/1999/xlink" width="1080" zoomAndPan="magnify" viewBox="0 0 810 809.999993" height="1080" preserveAspectRatio="xMidYMid meet" version="1.2"><defs><clipPath id="3a9a6e6fe3"><path d="M 169 352 L 277 352 L 277 459 L 169 459 Z M 169 352 "/></clipPath><clipPath id="457f58e04c"><path d="M 136.5 386.019531 L 242.457031 319.023438 L 309.453125 424.984375 L 203.492188 491.976562 Z M 136.5 386.019531 "/></clipPath><clipPath id="47f62232ba"><path d="M 136.5 386.019531 L 242.457031 319.023438 L 309.453125 424.984375 L 203.492188 491.976562 Z M 136.5 386.019531 "/></clipPath><clipPath id="bf95bd2a88"><path d="M 170 364 L 192 364 L 192 429 L 170 429 Z M 170 364 "/></clipPath><clipPath id="a3898333d8"><path d="M 136.5 386.019531 L 242.457031 319.023438 L 309.453125 424.984375 L 203.492188 491.976562 Z M 136.5 386.019531 "/></clipPath><clipPath id="7bd5d9f868"><path d="M 136.5 386.019531 L 242.457031 319.023438 L 309.453125 424.984375 L 203.492188 491.976562 Z M 136.5 386.019531 "/></clipPath><clipPath id="6d7315a193"><path d="M 254 382 L 276 382 L 276 447 L 254 447 Z M 254 382 "/></clipPath><clipPath id="5acfd1000e"><path d="M 136.5 386.019531 L 242.457031 319.023438 L 309.453125 424.984375 L 203.492188 491.976562 Z M 136.5 386.019531 "/></clipPath><clipPath id="c54f52e2e4"><path d="M 136.5 386.019531 L 242.457031 319.023438 L 309.453125 424.984375 L 203.492188 491.976562 Z M 136.5 386.019531 "/></clipPath><clipPath id="f64303d85a"><path d="M 200 353 L 264 353 L 264 374 L 200 374 Z M 200 353 "/></clipPath><clipPath id="cbf40fbac0"><path d="M 136.5 386.019531 L 242.457031 319.023438 L 309.453125 424.984375 L 203.492188 491.976562 Z M 136.5 386.019531 "/></clipPath><clipPath id="f136809111"><path d="M 136.5 386.019531 L 242.457031 319.023438 L 309.453125 424.984375 L 203.492188 491.976562 Z M 136.5 386.019531 "/></clipPath><clipPath id="0a00b8cde7"><path d="M 182 437 L 246 437 L 246 459 L 182 459 Z M 182 437 "/></clipPath><clipPath id="2a235546a8"><path d="M 136.5 386.019531 L 242.457031 319.023438 L 309.453125 424.984375 L 203.492188 491.976562 Z M 136.5 386.019531 "/></clipPath><clipPath id="4b0516adc6"><path d="M 136.5 386.019531 L 242.457031 319.023438 L 309.453125 424.984375 L 203.492188 491.976562 Z M 136.5 386.019531 "/></clipPath></defs><g id="c7509fa1a8"><g style="fill:#ffffff;fill-opacity:1;"><g transform="translate(81.035156, 443.612693)"><path style="stroke:none" d="M 5.546875 -8.796875 C 8.972656 -8.796875 11.160156 -9.742188 12.109375 -11.640625 C 13.054688 -13.535156 13.53125 -16.601562 13.53125 -20.84375 L 13.53125 -43.578125 C 13.53125 -47.640625 13.710938 -51.476562 14.078125 -55.09375 L 4.609375 -54.6875 L 4.609375 -64.96875 C 10.285156 -64.96875 14.882812 -65.375 18.40625 -66.1875 C 21.925781 -67 24.273438 -67.945312 25.453125 -69.03125 L 32.078125 -69.03125 C 32.078125 -68.851562 32.257812 -66.597656 32.625 -62.265625 L 32.890625 -62.265625 C 35.503906 -64.335938 38.726562 -66.117188 42.5625 -67.609375 C 46.40625 -69.097656 49.679688 -69.84375 52.390625 -69.84375 C 60.597656 -69.84375 66.460938 -67.492188 69.984375 -62.796875 C 73.503906 -58.109375 75.265625 -50.488281 75.265625 -39.9375 L 75.265625 -21.796875 C 75.265625 -17.460938 75.082031 -13.488281 74.71875 -9.875 C 77.695312 -10.144531 80.628906 -10.28125 83.515625 -10.28125 L 83.515625 0 L 48.046875 0 L 48.046875 -8.796875 C 51.484375 -8.796875 53.695312 -9.742188 54.6875 -11.640625 C 55.675781 -13.535156 56.171875 -16.601562 56.171875 -20.84375 L 56.03125 -40.0625 C 56.03125 -46.019531 55.195312 -50.394531 53.53125 -53.1875 C 51.863281 -55.988281 49.046875 -57.390625 45.078125 -57.390625 C 42.910156 -57.390625 40.695312 -56.914062 38.4375 -55.96875 C 36.1875 -55.019531 34.289062 -53.828125 32.75 -52.390625 L 32.75 -21.796875 C 32.75 -17.460938 32.570312 -13.488281 32.21875 -9.875 C 35.101562 -10.144531 38.035156 -10.28125 41.015625 -10.28125 L 41.015625 0 L 5.546875 0 Z M 5.546875 -8.796875 "/></g></g><g style="fill:#ffffff;fill-opacity:1;"><g transform="translate(167.121089, 443.612693)"><path style="stroke:none" d=""/></g></g><g style="fill:#ffffff;fill-opacity:1;"><g transform="translate(202.718552, 443.612693)"><path style="stroke:none" d=""/></g></g><g style="fill:#ffffff;fill-opacity:1;"><g transform="translate(238.316016, 443.612693)"><path style="stroke:none" d=""/></g></g><g style="fill:#ffffff;fill-opacity:1;"><g transform="translate(273.914052, 443.612693)"><path style="stroke:none" d="M 5.546875 -8.796875 C 8.972656 -8.796875 11.160156 -9.742188 12.109375 -11.640625 C 13.054688 -13.535156 13.53125 -16.601562 13.53125 -20.84375 L 13.53125 -43.578125 C 13.53125 -47.640625 13.710938 -51.476562 14.078125 -55.09375 L 4.609375 -54.6875 L 4.609375 -64.96875 C 10.285156 -64.96875 14.882812 -65.375 18.40625 -66.1875 C 21.925781 -67 24.273438 -67.945312 25.453125 -69.03125 L 32.078125 -69.03125 C 32.253906 -67.675781 32.390625 -65.914062 32.484375 -63.75 C 32.578125 -61.582031 32.625 -59.460938 32.625 -57.390625 L 32.890625 -57.390625 C 39.023438 -65.691406 45.523438 -69.84375 52.390625 -69.84375 C 55.816406 -69.84375 58.632812 -68.894531 60.84375 -67 C 63.050781 -65.101562 64.15625 -62.304688 64.15625 -58.609375 C 64.15625 -56.265625 63.390625 -54.097656 61.859375 -52.109375 C 60.328125 -50.128906 58.023438 -49.140625 54.953125 -49.140625 C 52.703125 -49.140625 50.695312 -49.722656 48.9375 -50.890625 C 47.175781 -52.066406 46.160156 -54.097656 45.890625 -56.984375 C 43.359375 -56.984375 40.757812 -55.515625 38.09375 -52.578125 C 35.4375 -49.648438 33.65625 -46.742188 32.75 -43.859375 L 32.75 -21.796875 C 32.75 -17.460938 32.570312 -13.488281 32.21875 -9.875 C 35.101562 -10.144531 38.035156 -10.28125 41.015625 -10.28125 L 41.015625 0 L 5.546875 0 Z M 5.546875 -8.796875 "/></g></g><g style="fill:#ffffff;fill-opacity:1;"><g transform="translate(338.882822, 443.612693)"><path style="stroke:none" d="M 32.34375 2.171875 C 18.269531 2.171875 11.234375 -6.492188 11.234375 -23.828125 L 11.5 -56.4375 L 2.296875 -56.4375 L 2.296875 -67.671875 C 5.179688 -67.671875 7.910156 -68.570312 10.484375 -70.375 C 13.054688 -72.1875 15.242188 -74.398438 17.046875 -77.015625 C 18.859375 -79.628906 20.125 -82.15625 20.84375 -84.59375 L 30.859375 -84.59375 L 30.71875 -67.671875 L 47.921875 -67.671875 L 47.921875 -57.25 L 30.71875 -56.84375 L 30.59375 -23.546875 C 30.59375 -14.796875 33.300781 -10.421875 38.71875 -10.421875 C 43.039062 -10.421875 47.144531 -13.128906 51.03125 -18.546875 L 57.53125 -12.453125 C 53.289062 -6.222656 49.046875 -2.226562 44.796875 -0.46875 C 40.554688 1.289062 36.40625 2.171875 32.34375 2.171875 Z M 32.34375 2.171875 "/></g></g><g style="fill:#ffffff;fill-opacity:1;"><g transform="translate(394.783031, 443.612693)"><path style="stroke:none" d="M 3.390625 -8.796875 C 5.816406 -8.796875 7.59375 -9.269531 8.71875 -10.21875 C 9.851562 -11.164062 10.578125 -12.453125 10.890625 -14.078125 C 11.210938 -15.703125 11.375 -17.957031 11.375 -20.84375 L 11.375 -76.484375 C 11.375 -80.804688 11.550781 -84.726562 11.90625 -88.25 L 2.4375 -87.84375 L 2.4375 -98.140625 C 8.125 -98.140625 12.722656 -98.546875 16.234375 -99.359375 C 19.753906 -100.171875 22.101562 -101.117188 23.28125 -102.203125 L 30.59375 -102.203125 L 30.59375 -62.265625 C 33.207031 -64.335938 36.453125 -66.117188 40.328125 -67.609375 C 44.210938 -69.097656 47.554688 -69.84375 50.359375 -69.84375 C 58.472656 -69.84375 64.289062 -67.492188 67.8125 -62.796875 C 71.332031 -58.109375 73.140625 -50.488281 73.234375 -39.9375 L 73.234375 -21.796875 C 73.234375 -17.460938 73.050781 -13.488281 72.6875 -9.875 C 75.570312 -10.144531 78.503906 -10.28125 81.484375 -10.28125 L 81.484375 0 L 45.890625 0 L 45.890625 -8.796875 C 49.316406 -8.796875 51.523438 -9.742188 52.515625 -11.640625 C 53.515625 -13.535156 54.015625 -16.601562 54.015625 -20.84375 L 53.875 -40.0625 C 53.875 -46.019531 52.992188 -50.394531 51.234375 -53.1875 C 49.472656 -55.988281 46.695312 -57.390625 42.90625 -57.390625 C 40.738281 -57.390625 38.523438 -56.914062 36.265625 -55.96875 C 34.015625 -55.019531 32.125 -53.828125 30.59375 -52.390625 L 30.59375 -21.796875 C 30.59375 -17.460938 30.410156 -13.488281 30.046875 -9.875 C 33.023438 -10.144531 35.957031 -10.28125 38.84375 -10.28125 L 38.84375 0 L 3.390625 0 Z M 3.390625 -8.796875 "/></g></g><g style="fill:#ffffff;fill-opacity:1;"><g transform="translate(478.836367, 443.612693)"><path style="stroke:none" d="M 36.6875 2.171875 C 32.800781 2.171875 29.007812 1.671875 25.3125 0.671875 C 21.613281 -0.316406 18.726562 -1.578125 16.65625 -3.109375 L 16.515625 -3.109375 L 16.921875 0.953125 L 6.625 0.953125 L 6.09375 -22.328125 L 14.890625 -22.328125 C 15.335938 -18.179688 17.523438 -14.6875 21.453125 -11.84375 C 25.378906 -9 30.1875 -7.578125 35.875 -7.578125 C 38.394531 -7.578125 40.578125 -8.160156 42.421875 -9.328125 C 44.273438 -10.503906 45.203125 -12.175781 45.203125 -14.34375 C 45.203125 -15.96875 44.613281 -17.320312 43.4375 -18.40625 C 42.269531 -19.488281 40.875 -20.390625 39.25 -21.109375 C 37.625 -21.835938 34.378906 -23.148438 29.515625 -25.046875 C 23.734375 -27.296875 19.398438 -29.140625 16.515625 -30.578125 C 13.628906 -32.023438 11.035156 -34.171875 8.734375 -37.015625 C 6.429688 -39.859375 5.28125 -43.535156 5.28125 -48.046875 C 5.28125 -51.753906 6.203125 -55.253906 8.046875 -58.546875 C 9.898438 -61.835938 12.742188 -64.539062 16.578125 -66.65625 C 20.410156 -68.78125 25.125 -69.84375 30.71875 -69.84375 C 33.34375 -69.84375 36.1875 -69.4375 39.25 -68.625 C 42.320312 -67.8125 44.894531 -66.6875 46.96875 -65.25 L 47.109375 -65.25 L 46.96875 -69.171875 L 57.25 -69.171875 L 57.25 -45.203125 L 48.453125 -45.203125 C 47.640625 -49.898438 45.5625 -53.601562 42.21875 -56.3125 C 38.882812 -59.019531 34.785156 -60.375 29.921875 -60.375 C 27.390625 -60.375 25.265625 -59.785156 23.546875 -58.609375 C 21.835938 -57.429688 20.984375 -55.628906 20.984375 -53.203125 C 20.984375 -50.671875 21.972656 -48.796875 23.953125 -47.578125 C 25.941406 -46.359375 29.28125 -44.984375 33.96875 -43.453125 C 34.507812 -43.359375 35.6875 -43 37.5 -42.375 C 45.164062 -39.664062 51.050781 -36.503906 55.15625 -32.890625 C 59.257812 -29.285156 61.3125 -24.546875 61.3125 -18.671875 C 61.3125 -14.160156 60.160156 -10.347656 57.859375 -7.234375 C 55.566406 -4.128906 52.546875 -1.785156 48.796875 -0.203125 C 45.046875 1.378906 41.007812 2.171875 36.6875 2.171875 Z M 36.6875 2.171875 "/></g></g><g style="fill:#ffffff;fill-opacity:1;"><g transform="translate(544.481894, 443.612693)"><path style="stroke:none" d="M 32.34375 2.171875 C 18.269531 2.171875 11.234375 -6.492188 11.234375 -23.828125 L 11.5 -56.4375 L 2.296875 -56.4375 L 2.296875 -67.671875 C 5.179688 -67.671875 7.910156 -68.570312 10.484375 -70.375 C 13.054688 -72.1875 15.242188 -74.398438 17.046875 -77.015625 C 18.859375 -79.628906 20.125 -82.15625 20.84375 -84.59375 L 30.859375 -84.59375 L 30.71875 -67.671875 L 47.921875 -67.671875 L 47.921875 -57.25 L 30.71875 -56.84375 L 30.59375 -23.546875 C 30.59375 -14.796875 33.300781 -10.421875 38.71875 -10.421875 C 43.039062 -10.421875 47.144531 -13.128906 51.03125 -18.546875 L 57.53125 -12.453125 C 53.289062 -6.222656 49.046875 -2.226562 44.796875 -0.46875 C 40.554688 1.289062 36.40625 2.171875 32.34375 2.171875 Z M 32.34375 2.171875 "/></g></g><g style="fill:#ffffff;fill-opacity:1;"><g transform="translate(600.382114, 443.612693)"><path style="stroke:none" d="M 22.46875 2.171875 C 16.78125 2.171875 12.289062 0.476562 9 -2.90625 C 5.707031 -6.289062 4.0625 -10.601562 4.0625 -15.84375 C 4.0625 -23.78125 7.757812 -29.800781 15.15625 -33.90625 C 22.5625 -38.007812 31.453125 -40.289062 41.828125 -40.75 L 41.828125 -47.78125 C 41.828125 -55.988281 38.757812 -60.09375 32.625 -60.09375 C 28.65625 -60.09375 25.40625 -58.832031 22.875 -56.3125 C 23.957031 -55.050781 24.5 -53.335938 24.5 -51.171875 C 24.5 -49.003906 23.753906 -47.0625 22.265625 -45.34375 C 20.773438 -43.632812 18.585938 -42.78125 15.703125 -42.78125 C 12.992188 -42.78125 10.867188 -43.65625 9.328125 -45.40625 C 7.796875 -47.164062 7.03125 -49.359375 7.03125 -51.984375 C 7.03125 -55.492188 8.296875 -58.601562 10.828125 -61.3125 C 13.359375 -64.019531 16.8125 -66.117188 21.1875 -67.609375 C 25.5625 -69.097656 30.363281 -69.84375 35.59375 -69.84375 C 52.289062 -69.84375 60.640625 -61.222656 60.640625 -43.984375 L 60.5 -21.796875 C 60.5 -17.460938 60.320312 -13.488281 59.96875 -9.875 C 62.945312 -10.144531 65.878906 -10.28125 68.765625 -10.28125 L 68.765625 0 L 43.171875 0 C 42.992188 -1.175781 42.816406 -3.25 42.640625 -6.21875 L 42.5 -6.21875 C 37 -0.625 30.320312 2.171875 22.46875 2.171875 Z M 31 -11.09375 C 35.0625 -11.09375 38.625 -12.71875 41.6875 -15.96875 L 41.6875 -31.125 C 36.363281 -30.59375 31.960938 -29.242188 28.484375 -27.078125 C 25.015625 -24.910156 23.28125 -21.976562 23.28125 -18.28125 C 23.28125 -15.84375 24.023438 -14.035156 25.515625 -12.859375 C 27.003906 -11.679688 28.832031 -11.09375 31 -11.09375 Z M 31 -11.09375 "/></g></g><g style="fill:#ffffff;fill-opacity:1;"><g transform="translate(671.30632, 443.612693)"><path style="stroke:none" d="M 5.546875 -8.796875 C 8.972656 -8.796875 11.160156 -9.742188 12.109375 -11.640625 C 13.054688 -13.535156 13.53125 -16.601562 13.53125 -20.84375 L 13.53125 -43.578125 C 13.53125 -47.640625 13.710938 -51.476562 14.078125 -55.09375 L 4.609375 -54.6875 L 4.609375 -64.96875 C 10.285156 -64.96875 14.882812 -65.375 18.40625 -66.1875 C 21.925781 -67 24.273438 -67.945312 25.453125 -69.03125 L 32.078125 -69.03125 C 32.253906 -67.675781 32.390625 -65.914062 32.484375 -63.75 C 32.578125 -61.582031 32.625 -59.460938 32.625 -57.390625 L 32.890625 -57.390625 C 39.023438 -65.691406 45.523438 -69.84375 52.390625 -69.84375 C 55.816406 -69.84375 58.632812 -68.894531 60.84375 -67 C 63.050781 -65.101562 64.15625 -62.304688 64.15625 -58.609375 C 64.15625 -56.265625 63.390625 -54.097656 61.859375 -52.109375 C 60.328125 -50.128906 58.023438 -49.140625 54.953125 -49.140625 C 52.703125 -49.140625 50.695312 -49.722656 48.9375 -50.890625 C 47.175781 -52.066406 46.160156 -54.097656 45.890625 -56.984375 C 43.359375 -56.984375 40.757812 -55.515625 38.09375 -52.578125 C 35.4375 -49.648438 33.65625 -46.742188 32.75 -43.859375 L 32.75 -21.796875 C 32.75 -17.460938 32.570312 -13.488281 32.21875 -9.875 C 35.101562 -10.144531 38.035156 -10.28125 41.015625 -10.28125 L 41.015625 0 L 5.546875 0 Z M 5.546875 -8.796875 "/></g></g><g clip-rule="nonzero" clip-path="url(#3a9a6e6fe3)"><g clip-rule="nonzero" clip-path="url(#457f58e04c)"><g clip-rule="nonzero" clip-path="url(#47f62232ba)"><path style=" stroke:none;fill-rule:nonzero;fill:#ffffff;fill-opacity:1;" d="M 275.957031 372.160156 C 275.9375 372.132812 275.914062 372.148438 275.894531 372.125 C 275.878906 372.097656 275.886719 372.054688 275.84375 372.042969 C 275.828125 372.015625 275.757812 372.023438 275.726562 371.972656 C 275.664062 371.933594 275.605469 371.898438 275.519531 371.878906 C 275.457031 371.84375 275.414062 371.832031 275.371094 371.824219 C 275.300781 371.828125 275.230469 371.835938 275.160156 371.84375 C 275.109375 371.878906 275.046875 371.839844 274.976562 371.847656 L 230.808594 389.339844 L 231.480469 370.277344 C 231.460938 370.25 231.429688 370.195312 231.453125 370.179688 C 231.421875 370.125 231.429688 370.082031 231.398438 370.03125 C 231.378906 370.003906 231.363281 369.976562 231.335938 369.992188 C 231.347656 369.949219 231.304688 369.941406 231.285156 369.914062 C 231.226562 369.878906 231.238281 369.835938 231.191406 369.824219 C 231.175781 369.796875 231.148438 369.816406 231.148438 369.816406 C 231.125 369.832031 231.125 369.832031 231.105469 369.804688 C 231.078125 369.820312 231.078125 369.820312 231.0625 369.796875 C 231.035156 369.8125 231.019531 369.785156 231.019531 369.785156 C 230.992188 369.800781 230.964844 369.820312 230.921875 369.808594 C 230.894531 369.824219 230.851562 369.816406 230.800781 369.851562 L 230.679688 369.925781 C 230.652344 369.941406 230.644531 369.984375 230.589844 370.019531 C 230.609375 370.046875 230.554688 370.078125 230.527344 370.097656 L 222.960938 387.605469 L 190.46875 352.808594 C 190.449219 352.78125 190.378906 352.789062 190.347656 352.734375 C 190.285156 352.699219 190.226562 352.664062 190.140625 352.644531 C 190.078125 352.605469 190.054688 352.625 189.992188 352.585938 C 189.921875 352.59375 189.851562 352.601562 189.800781 352.636719 C 189.730469 352.640625 189.695312 352.589844 189.644531 352.621094 C 189.597656 352.613281 189.589844 352.65625 189.5625 352.671875 C 189.535156 352.691406 189.519531 352.664062 189.492188 352.679688 C 189.464844 352.695312 189.457031 352.738281 189.457031 352.738281 C 189.429688 352.757812 189.386719 352.746094 189.378906 352.789062 C 189.324219 352.824219 189.332031 352.894531 189.320312 352.9375 C 189.242188 352.988281 189.207031 353.046875 189.195312 353.089844 C 189.175781 353.179688 189.148438 353.195312 189.15625 353.265625 C 189.164062 353.335938 189.171875 353.40625 189.175781 353.476562 C 189.183594 353.542969 189.175781 353.589844 189.164062 353.632812 L 206.671875 397.828125 L 187.582031 397.171875 C 187.582031 397.171875 187.554688 397.191406 187.511719 397.179688 C 187.488281 397.199219 187.417969 397.203125 187.390625 397.222656 C 187.335938 397.253906 187.335938 397.253906 187.308594 397.273438 C 187.285156 397.289062 187.246094 397.347656 187.238281 397.390625 C 187.210938 397.410156 187.210938 397.410156 187.183594 397.425781 C 187.15625 397.441406 187.175781 397.46875 187.148438 397.484375 C 187.164062 397.511719 187.164062 397.511719 187.136719 397.53125 L 187.15625 397.554688 C 187.128906 397.574219 187.101562 397.589844 187.117188 397.617188 L 187.167969 397.695312 C 187.160156 397.738281 187.167969 397.808594 187.167969 397.808594 L 187.234375 397.914062 C 187.277344 397.925781 187.292969 397.953125 187.355469 397.988281 C 187.371094 398.015625 187.386719 398.042969 187.386719 398.042969 L 204.914062 405.636719 L 170.144531 438.054688 C 170.132812 438.097656 170.140625 438.167969 170.089844 438.203125 C 170.050781 438.261719 170.015625 438.324219 169.980469 438.382812 C 169.941406 438.441406 169.960938 438.46875 169.96875 438.539062 C 169.949219 438.625 169.953125 438.695312 169.960938 438.765625 C 169.996094 438.820312 169.957031 438.878906 169.976562 438.90625 C 169.964844 438.949219 170.007812 438.960938 170.027344 438.984375 C 170.042969 439.011719 170.015625 439.027344 170.03125 439.054688 C 170.050781 439.082031 170.078125 439.066406 170.09375 439.09375 C 170.109375 439.117188 170.101562 439.164062 170.144531 439.171875 C 170.175781 439.226562 170.246094 439.21875 170.28125 439.269531 C 170.339844 439.308594 170.402344 439.34375 170.472656 439.335938 C 170.488281 439.363281 170.53125 439.375 170.574219 439.382812 C 170.660156 439.402344 170.757812 439.378906 170.839844 439.363281 C 170.894531 439.328125 170.953125 439.367188 170.996094 439.375 L 215.195312 421.867188 L 214.523438 440.929688 L 214.574219 441.011719 C 214.5625 441.054688 214.597656 441.105469 214.585938 441.152344 C 214.605469 441.175781 214.605469 441.175781 214.664062 441.214844 C 214.679688 441.238281 214.714844 441.292969 214.757812 441.304688 C 214.773438 441.328125 214.792969 441.355469 214.792969 441.355469 C 214.808594 441.382812 214.835938 441.367188 214.878906 441.375 C 214.878906 441.375 214.878906 441.375 214.894531 441.402344 L 214.921875 441.386719 C 214.964844 441.394531 214.984375 441.421875 215.007812 441.40625 C 215.007812 441.40625 215.0625 441.371094 215.078125 441.398438 C 215.132812 441.363281 215.175781 441.375 215.183594 441.332031 C 215.230469 441.339844 215.230469 441.339844 215.253906 441.324219 C 215.308594 441.289062 215.34375 441.230469 215.355469 441.1875 L 215.433594 441.136719 L 223.003906 423.628906 L 255.421875 458.394531 C 255.480469 458.433594 255.523438 458.441406 255.585938 458.480469 C 255.644531 458.515625 255.707031 458.550781 255.75 458.5625 C 255.792969 458.570312 255.808594 458.597656 255.851562 458.605469 C 255.9375 458.625 256.035156 458.601562 256.144531 458.570312 C 256.199219 458.539062 256.234375 458.589844 256.285156 458.558594 C 256.355469 458.550781 256.382812 458.53125 256.433594 458.5 C 256.460938 458.484375 256.515625 458.449219 256.550781 458.386719 C 256.578125 458.371094 256.570312 458.300781 256.625 458.269531 C 256.6875 458.191406 256.722656 458.132812 256.757812 458.035156 C 256.765625 457.992188 256.777344 457.949219 256.757812 457.921875 C 256.796875 457.863281 256.789062 457.792969 256.753906 457.738281 C 256.746094 457.667969 256.785156 457.609375 256.75 457.554688 L 239.269531 413.34375 L 258.332031 414.015625 C 258.386719 413.980469 258.410156 413.964844 258.457031 413.972656 C 258.480469 413.957031 258.523438 413.964844 258.550781 413.949219 C 258.578125 413.933594 258.578125 413.933594 258.605469 413.914062 C 258.660156 413.882812 258.695312 413.820312 258.703125 413.777344 L 258.785156 413.726562 C 258.792969 413.683594 258.792969 413.683594 258.804688 413.640625 C 258.8125 413.597656 258.8125 413.597656 258.804688 413.527344 C 258.804688 413.527344 258.789062 413.5 258.800781 413.457031 C 258.765625 413.40625 258.777344 413.363281 258.742188 413.308594 C 258.726562 413.28125 258.726562 413.28125 258.683594 413.273438 C 258.691406 413.230469 258.648438 413.21875 258.632812 413.191406 C 258.589844 413.183594 258.582031 413.113281 258.554688 413.128906 L 241.027344 405.535156 L 275.769531 373.132812 C 275.808594 373.070312 275.800781 373.003906 275.851562 372.96875 C 275.890625 372.910156 275.953125 372.832031 275.984375 372.734375 C 275.996094 372.691406 276.003906 372.648438 275.988281 372.621094 C 276.023438 372.5625 275.992188 372.507812 275.984375 372.441406 C 275.976562 372.371094 276.011719 372.308594 275.980469 372.257812 C 275.988281 372.214844 275.945312 372.203125 275.929688 372.175781 C 275.945312 372.203125 275.972656 372.1875 275.957031 372.160156 Z M 219.175781 418.664062 L 215.21875 420.234375 L 178.464844 434.765625 L 215.515625 411.339844 L 221.734375 407.410156 Z M 217.285156 398.222656 L 221.214844 404.445312 L 209.964844 401.886719 L 208.394531 397.929688 L 193.859375 361.171875 Z M 237.523438 413.40625 L 252.058594 450.164062 L 228.632812 413.113281 L 224.699219 406.890625 L 235.953125 409.449219 Z M 230.402344 399.996094 L 224.183594 403.925781 L 226.742188 392.671875 L 230.695312 391.101562 L 267.453125 376.570312 Z M 230.402344 399.996094 "/></g></g></g><g clip-rule="nonzero" clip-path="url(#bf95bd2a88)"><g clip-rule="nonzero" clip-path="url(#a3898333d8)"><g clip-rule="nonzero" clip-path="url(#7bd5d9f868)"><path style=" stroke:none;fill-rule:nonzero;fill:#ffffff;fill-opacity:1;" d="M 191.277344 368.035156 L 190.035156 364.835938 C 171.121094 380.050781 165.144531 406.523438 175.691406 428.410156 L 178.199219 426.082031 C 169.054688 406.058594 174.433594 382.199219 191.277344 368.035156 Z M 191.277344 368.035156 "/></g></g></g><g clip-rule="nonzero" clip-path="url(#6d7315a193)"><g clip-rule="nonzero" clip-path="url(#5acfd1000e)"><g clip-rule="nonzero" clip-path="url(#c54f52e2e4)"><path style=" stroke:none;fill-rule:nonzero;fill:#ffffff;fill-opacity:1;" d="M 254.613281 443.320312 L 255.851562 446.515625 C 274.816406 431.289062 280.808594 404.785156 270.21875 382.914062 L 267.71875 385.253906 C 276.859375 405.277344 271.5 429.164062 254.613281 443.320312 Z M 254.613281 443.320312 "/></g></g></g><g clip-rule="nonzero" clip-path="url(#f64303d85a)"><g clip-rule="nonzero" clip-path="url(#cbf40fbac0)"><g clip-rule="nonzero" clip-path="url(#f136809111)"><path style=" stroke:none;fill-rule:nonzero;fill:#ffffff;fill-opacity:1;" d="M 260.59375 373.984375 L 263.789062 372.746094 C 248.578125 353.808594 222.050781 347.832031 200.203125 358.410156 L 202.53125 360.917969 C 222.550781 351.738281 246.425781 357.140625 260.59375 373.984375 Z M 260.59375 373.984375 "/></g></g></g><g clip-rule="nonzero" clip-path="url(#0a00b8cde7)"><g clip-rule="nonzero" clip-path="url(#2a235546a8)"><g clip-rule="nonzero" clip-path="url(#4b0516adc6)"><path style=" stroke:none;fill-rule:nonzero;fill:#ffffff;fill-opacity:1;" d="M 185.308594 437.324219 L 182.125 438.589844 C 197.335938 457.527344 223.867188 463.503906 245.714844 452.925781 L 243.371094 450.425781 C 223.351562 459.570312 199.460938 454.210938 185.308594 437.324219 Z M 185.308594 437.324219 "/></g></g></g><g style="fill:#ffffff;fill-opacity:1;"><g transform="translate(183.8954, 353.100714)"><path style="stroke:none" d="M 0.09375 -6.1875 C -0.21875 -6.3125 -0.585938 -6.457031 -1.015625 -6.625 L -1.015625 -6.609375 L 1.140625 -3.234375 C 1.398438 -2.828125 1.59375 -2.488281 1.71875 -2.21875 C 1.945312 -2.394531 2.21875 -2.582031 2.53125 -2.78125 L 3.0625 -1.9375 L 0.546875 -0.34375 L 0.09375 -1.0625 C 0.289062 -1.207031 0.425781 -1.332031 0.5 -1.4375 C 0.570312 -1.539062 0.59375 -1.675781 0.5625 -1.84375 C 0.539062 -2.007812 0.441406 -2.234375 0.265625 -2.515625 L -2.390625 -6.703125 C -2.691406 -7.191406 -2.890625 -7.535156 -2.984375 -7.734375 L -3.78125 -7.15625 L -4.3125 -8 L -2.59375 -9.09375 L 3.421875 -7 C 3.984375 -6.78125 4.457031 -6.59375 4.84375 -6.4375 L 4.859375 -6.4375 L 2.65625 -9.90625 C 2.351562 -10.382812 2.160156 -10.726562 2.078125 -10.9375 L 1.28125 -10.359375 L 0.75 -11.203125 L 3.25 -12.796875 L 3.703125 -12.078125 C 3.503906 -11.929688 3.363281 -11.804688 3.28125 -11.703125 C 3.207031 -11.597656 3.179688 -11.460938 3.203125 -11.296875 C 3.234375 -11.128906 3.335938 -10.90625 3.515625 -10.625 L 7.375 -4.515625 L 6.4375 -3.921875 Z M 0.09375 -6.1875 "/></g></g><g style="fill:#ffffff;fill-opacity:1;"><g transform="translate(259.66905, 470.846541)"><path style="stroke:none" d="M 3.484375 -1.953125 C 3.179688 -1.765625 2.832031 -1.609375 2.4375 -1.484375 C 2.039062 -1.367188 1.644531 -1.300781 1.25 -1.28125 L 1.234375 -1.28125 L 1.5625 -0.84375 L 0.703125 -0.3125 L -0.921875 -2.875 L -0.1875 -3.34375 C 0.28125 -2.800781 0.796875 -2.484375 1.359375 -2.390625 C 1.929688 -2.304688 2.476562 -2.425781 3 -2.75 C 3.382812 -2.988281 3.640625 -3.289062 3.765625 -3.65625 C 3.890625 -4.019531 3.859375 -4.347656 3.671875 -4.640625 C 3.523438 -4.867188 3.316406 -5.015625 3.046875 -5.078125 C 2.773438 -5.140625 2.507812 -5.148438 2.25 -5.109375 C 1.988281 -5.078125 1.582031 -5.015625 1.03125 -4.921875 C 0.0195312 -4.734375 -0.820312 -4.707031 -1.5 -4.84375 C -2.1875 -4.976562 -2.742188 -5.382812 -3.171875 -6.0625 C -3.378906 -6.394531 -3.5 -6.769531 -3.53125 -7.1875 C -3.5625 -7.613281 -3.453125 -8.050781 -3.203125 -8.5 C -2.953125 -8.957031 -2.523438 -9.378906 -1.921875 -9.765625 C -1.597656 -9.960938 -1.238281 -10.125 -0.84375 -10.25 C -0.445312 -10.382812 -0.0820312 -10.429688 0.25 -10.390625 L 0.265625 -10.40625 L -0.0625 -10.828125 L 0.796875 -11.375 L 2.40625 -8.828125 L 1.6875 -8.359375 C 1.207031 -8.898438 0.703125 -9.222656 0.171875 -9.328125 C -0.347656 -9.441406 -0.859375 -9.34375 -1.359375 -9.03125 C -1.691406 -8.820312 -1.914062 -8.550781 -2.03125 -8.21875 C -2.15625 -7.894531 -2.128906 -7.59375 -1.953125 -7.3125 C -1.753906 -7 -1.453125 -6.816406 -1.046875 -6.765625 C -0.640625 -6.722656 -0.03125 -6.769531 0.78125 -6.90625 C 1.695312 -7.070312 2.507812 -7.113281 3.21875 -7.03125 C 3.925781 -6.945312 4.484375 -6.582031 4.890625 -5.9375 C 5.160156 -5.507812 5.285156 -5.050781 5.265625 -4.5625 C 5.242188 -4.082031 5.078125 -3.613281 4.765625 -3.15625 C 4.460938 -2.707031 4.035156 -2.304688 3.484375 -1.953125 Z M 3.484375 -1.953125 "/></g></g><g style="fill:#ffffff;fill-opacity:1;"><g transform="translate(539.363774, 486.438044)"><path style="stroke:none" d="M 1.203125 7.359375 C 2.179688 7.359375 2.8125 7.085938 3.09375 6.546875 C 3.375 6.003906 3.515625 5.125 3.515625 3.90625 L 3.515625 -12.46875 C 3.515625 -13.625 3.566406 -14.722656 3.671875 -15.765625 L 0.921875 -15.640625 L 0.921875 -18.578125 C 2.554688 -18.578125 3.875 -18.691406 4.875 -18.921875 C 5.882812 -19.160156 6.554688 -19.4375 6.890625 -19.75 L 8.796875 -19.75 C 8.835938 -19.3125 8.898438 -18.691406 8.984375 -17.890625 L 9.015625 -17.890625 C 10.617188 -19.285156 12.347656 -19.984375 14.203125 -19.984375 C 15.753906 -19.984375 17.117188 -19.582031 18.296875 -18.78125 C 19.472656 -17.976562 20.390625 -16.832031 21.046875 -15.34375 C 21.703125 -13.863281 22.03125 -12.144531 22.03125 -10.1875 C 22.03125 -8.113281 21.628906 -6.257812 20.828125 -4.625 C 20.023438 -2.988281 18.894531 -1.703125 17.4375 -0.765625 C 15.976562 0.160156 14.304688 0.625 12.421875 0.625 C 11.421875 0.625 10.273438 0.390625 8.984375 -0.078125 L 8.984375 3.640625 C 8.984375 4.742188 8.941406 5.878906 8.859375 7.046875 C 9.660156 6.972656 10.488281 6.9375 11.34375 6.9375 L 11.34375 9.875 L 1.203125 9.875 Z M 11.65625 -2.28125 C 14.78125 -2.28125 16.34375 -4.722656 16.34375 -9.609375 C 16.34375 -11.515625 16 -13.140625 15.3125 -14.484375 C 14.625 -15.828125 13.597656 -16.5 12.234375 -16.5 C 11.585938 -16.5 10.972656 -16.34375 10.390625 -16.03125 C 9.816406 -15.71875 9.347656 -15.304688 8.984375 -14.796875 L 8.984375 -2.984375 C 9.242188 -2.796875 9.625 -2.628906 10.125 -2.484375 C 10.625 -2.347656 11.132812 -2.28125 11.65625 -2.28125 Z M 11.65625 -2.28125 "/></g></g><g style="fill:#ffffff;fill-opacity:1;"><g transform="translate(568.124686, 486.438044)"><path style="stroke:none" d="M 11.078125 0.625 C 9.191406 0.625 7.5 0.222656 6 -0.578125 C 4.5 -1.378906 3.320312 -2.523438 2.46875 -4.015625 C 1.625 -5.515625 1.203125 -7.257812 1.203125 -9.25 C 1.203125 -11.34375 1.640625 -13.203125 2.515625 -14.828125 C 3.390625 -16.453125 4.566406 -17.71875 6.046875 -18.625 C 7.535156 -19.53125 9.171875 -19.984375 10.953125 -19.984375 C 12.816406 -19.984375 14.484375 -19.582031 15.953125 -18.78125 C 17.421875 -17.976562 18.582031 -16.820312 19.4375 -15.3125 C 20.289062 -13.800781 20.71875 -12.039062 20.71875 -10.03125 C 20.71875 -7.882812 20.3125 -6.007812 19.5 -4.40625 C 18.6875 -2.8125 17.550781 -1.570312 16.09375 -0.6875 C 14.632812 0.1875 12.960938 0.625 11.078125 0.625 Z M 11.15625 -2.125 C 12.570312 -2.125 13.5625 -2.78125 14.125 -4.09375 C 14.695312 -5.414062 14.984375 -7.070312 14.984375 -9.0625 C 14.984375 -11.28125 14.660156 -13.203125 14.015625 -14.828125 C 13.367188 -16.453125 12.347656 -17.265625 10.953125 -17.265625 C 9.535156 -17.265625 8.503906 -16.59375 7.859375 -15.25 C 7.210938 -13.90625 6.890625 -12.253906 6.890625 -10.296875 C 6.890625 -8.054688 7.238281 -6.132812 7.9375 -4.53125 C 8.632812 -2.925781 9.707031 -2.125 11.15625 -2.125 Z M 11.15625 -2.125 "/></g></g><g style="fill:#ffffff;fill-opacity:1;"><g transform="translate(595.375986, 486.438044)"><path style="stroke:none" d="M 0.96875 -2.515625 C 1.664062 -2.515625 2.175781 -2.648438 2.5 -2.921875 C 2.820312 -3.191406 3.023438 -3.554688 3.109375 -4.015625 C 3.203125 -4.484375 3.25 -5.132812 3.25 -5.96875 L 3.25 -21.875 C 3.25 -23.113281 3.300781 -24.238281 3.40625 -25.25 L 0.703125 -25.125 L 0.703125 -28.078125 C 2.328125 -28.078125 3.640625 -28.191406 4.640625 -28.421875 C 5.648438 -28.648438 6.320312 -28.921875 6.65625 -29.234375 L 8.75 -29.234375 L 8.75 -6.234375 C 8.75 -4.992188 8.695312 -3.859375 8.59375 -2.828125 C 9.445312 -2.898438 10.285156 -2.9375 11.109375 -2.9375 L 11.109375 0 L 0.96875 0 Z M 0.96875 -2.515625 "/></g></g><g style="fill:#ffffff;fill-opacity:1;"><g transform="translate(612.950585, 486.438044)"><path style="stroke:none" d="M 7.046875 -23.1875 C 6.171875 -23.1875 5.445312 -23.488281 4.875 -24.09375 C 4.3125 -24.707031 4.03125 -25.453125 4.03125 -26.328125 C 4.03125 -27.203125 4.328125 -27.957031 4.921875 -28.59375 C 5.515625 -29.226562 6.210938 -29.546875 7.015625 -29.546875 C 7.835938 -29.546875 8.523438 -29.234375 9.078125 -28.609375 C 9.628906 -27.992188 9.90625 -27.234375 9.90625 -26.328125 C 9.90625 -25.421875 9.640625 -24.671875 9.109375 -24.078125 C 8.585938 -23.484375 7.898438 -23.1875 7.046875 -23.1875 Z M 1.59375 -2.515625 C 2.570312 -2.515625 3.195312 -2.785156 3.46875 -3.328125 C 3.738281 -3.867188 3.875 -4.75 3.875 -5.96875 L 3.875 -12.390625 C 3.875 -13.597656 3.925781 -14.722656 4.03125 -15.765625 L 1.3125 -15.640625 L 1.3125 -18.578125 C 2.9375 -18.578125 4.253906 -18.691406 5.265625 -18.921875 C 6.273438 -19.160156 6.945312 -19.4375 7.28125 -19.75 L 9.375 -19.75 L 9.375 -6.234375 C 9.375 -4.992188 9.320312 -3.859375 9.21875 -2.828125 C 10.039062 -2.898438 10.878906 -2.9375 11.734375 -2.9375 L 11.734375 0 L 1.59375 0 Z M 1.59375 -2.515625 "/></g></g><g style="fill:#ffffff;fill-opacity:1;"><g transform="translate(630.950928, 486.438044)"><path style="stroke:none" d="M 9.25 0.625 C 5.226562 0.625 3.21875 -1.851562 3.21875 -6.8125 L 3.296875 -16.140625 L 0.65625 -16.140625 L 0.65625 -19.359375 C 1.476562 -19.359375 2.257812 -19.613281 3 -20.125 C 3.738281 -20.644531 4.363281 -21.28125 4.875 -22.03125 C 5.394531 -22.78125 5.757812 -23.503906 5.96875 -24.203125 L 8.828125 -24.203125 L 8.796875 -19.359375 L 13.703125 -19.359375 L 13.703125 -16.375 L 8.796875 -16.265625 L 8.75 -6.734375 C 8.75 -4.234375 9.523438 -2.984375 11.078125 -2.984375 C 12.316406 -2.984375 13.488281 -3.753906 14.59375 -5.296875 L 16.453125 -3.5625 C 15.242188 -1.78125 14.03125 -0.632812 12.8125 -0.125 C 11.601562 0.375 10.414062 0.625 9.25 0.625 Z M 9.25 0.625 "/></g></g><g style="fill:#ffffff;fill-opacity:1;"><g transform="translate(652.434931, 486.438044)"><path style="stroke:none" d="M 7.046875 -23.1875 C 6.171875 -23.1875 5.445312 -23.488281 4.875 -24.09375 C 4.3125 -24.707031 4.03125 -25.453125 4.03125 -26.328125 C 4.03125 -27.203125 4.328125 -27.957031 4.921875 -28.59375 C 5.515625 -29.226562 6.210938 -29.546875 7.015625 -29.546875 C 7.835938 -29.546875 8.523438 -29.234375 9.078125 -28.609375 C 9.628906 -27.992188 9.90625 -27.234375 9.90625 -26.328125 C 9.90625 -25.421875 9.640625 -24.671875 9.109375 -24.078125 C 8.585938 -23.484375 7.898438 -23.1875 7.046875 -23.1875 Z M 1.59375 -2.515625 C 2.570312 -2.515625 3.195312 -2.785156 3.46875 -3.328125 C 3.738281 -3.867188 3.875 -4.75 3.875 -5.96875 L 3.875 -12.390625 C 3.875 -13.597656 3.925781 -14.722656 4.03125 -15.765625 L 1.3125 -15.640625 L 1.3125 -18.578125 C 2.9375 -18.578125 4.253906 -18.691406 5.265625 -18.921875 C 6.273438 -19.160156 6.945312 -19.4375 7.28125 -19.75 L 9.375 -19.75 L 9.375 -6.234375 C 9.375 -4.992188 9.320312 -3.859375 9.21875 -2.828125 C 10.039062 -2.898438 10.878906 -2.9375 11.734375 -2.9375 L 11.734375 0 L 1.59375 0 Z M 1.59375 -2.515625 "/></g></g><g style="fill:#ffffff;fill-opacity:1;"><g transform="translate(670.590136, 486.438044)"><path style="stroke:none" d="M 10.71875 0.625 C 8.96875 0.625 7.367188 0.226562 5.921875 -0.5625 C 4.472656 -1.351562 3.320312 -2.488281 2.46875 -3.96875 C 1.625 -5.445312 1.203125 -7.207031 1.203125 -9.25 C 1.203125 -11.1875 1.625 -12.972656 2.46875 -14.609375 C 3.320312 -16.253906 4.515625 -17.5625 6.046875 -18.53125 C 7.585938 -19.5 9.328125 -19.984375 11.265625 -19.984375 C 12.835938 -19.984375 14.1875 -19.734375 15.3125 -19.234375 C 16.4375 -18.742188 17.28125 -18.09375 17.84375 -17.28125 C 18.414062 -16.46875 18.703125 -15.597656 18.703125 -14.671875 C 18.703125 -13.867188 18.460938 -13.179688 17.984375 -12.609375 C 17.503906 -12.046875 16.851562 -11.765625 16.03125 -11.765625 C 15.175781 -11.765625 14.535156 -12.019531 14.109375 -12.53125 C 13.679688 -13.050781 13.46875 -13.632812 13.46875 -14.28125 C 13.46875 -14.875 13.625 -15.441406 13.9375 -15.984375 C 13.707031 -16.453125 13.332031 -16.78125 12.8125 -16.96875 C 12.300781 -17.164062 11.785156 -17.265625 11.265625 -17.265625 C 9.953125 -17.265625 8.890625 -16.664062 8.078125 -15.46875 C 7.265625 -14.269531 6.859375 -12.570312 6.859375 -10.375 C 6.859375 -8.175781 7.28125 -6.367188 8.125 -4.953125 C 8.976562 -3.535156 10.320312 -2.828125 12.15625 -2.828125 C 13.1875 -2.828125 14.203125 -3.097656 15.203125 -3.640625 C 16.210938 -4.179688 17.066406 -4.90625 17.765625 -5.8125 L 19.546875 -4.0625 C 18.253906 -2.28125 16.875 -1.050781 15.40625 -0.375 C 13.9375 0.289062 12.375 0.625 10.71875 0.625 Z M 10.71875 0.625 "/></g></g><g style="fill:#ffffff;fill-opacity:1;"><g transform="translate(696.138371, 486.438044)"><path style="stroke:none" d="M 10.5 0.625 C 9.382812 0.625 8.296875 0.476562 7.234375 0.1875 C 6.179688 -0.09375 5.359375 -0.453125 4.765625 -0.890625 L 4.71875 -0.890625 L 4.84375 0.265625 L 1.890625 0.265625 L 1.75 -6.390625 L 4.265625 -6.390625 C 4.390625 -5.203125 5.015625 -4.203125 6.140625 -3.390625 C 7.265625 -2.578125 8.640625 -2.171875 10.265625 -2.171875 C 10.984375 -2.171875 11.609375 -2.335938 12.140625 -2.671875 C 12.671875 -3.003906 12.9375 -3.484375 12.9375 -4.109375 C 12.9375 -4.566406 12.765625 -4.953125 12.421875 -5.265625 C 12.085938 -5.578125 11.6875 -5.832031 11.21875 -6.03125 C 10.757812 -6.238281 9.832031 -6.613281 8.4375 -7.15625 C 6.789062 -7.800781 5.550781 -8.332031 4.71875 -8.75 C 3.894531 -9.164062 3.15625 -9.78125 2.5 -10.59375 C 1.84375 -11.40625 1.515625 -12.457031 1.515625 -13.75 C 1.515625 -14.800781 1.773438 -15.796875 2.296875 -16.734375 C 2.828125 -17.679688 3.640625 -18.457031 4.734375 -19.0625 C 5.835938 -19.675781 7.191406 -19.984375 8.796875 -19.984375 C 9.535156 -19.984375 10.34375 -19.863281 11.21875 -19.625 C 12.101562 -19.394531 12.84375 -19.070312 13.4375 -18.65625 L 13.46875 -18.65625 L 13.4375 -19.78125 L 16.375 -19.78125 L 16.375 -12.9375 L 13.859375 -12.9375 C 13.628906 -14.28125 13.035156 -15.335938 12.078125 -16.109375 C 11.117188 -16.878906 9.945312 -17.265625 8.5625 -17.265625 C 7.832031 -17.265625 7.222656 -17.097656 6.734375 -16.765625 C 6.242188 -16.429688 6 -15.914062 6 -15.21875 C 6 -14.488281 6.28125 -13.953125 6.84375 -13.609375 C 7.414062 -13.265625 8.375 -12.867188 9.71875 -12.421875 C 9.875 -12.398438 10.207031 -12.300781 10.71875 -12.125 C 12.914062 -11.34375 14.601562 -10.4375 15.78125 -9.40625 C 16.957031 -8.375 17.546875 -7.019531 17.546875 -5.34375 C 17.546875 -4.050781 17.210938 -2.957031 16.546875 -2.0625 C 15.890625 -1.175781 15.023438 -0.503906 13.953125 -0.046875 C 12.878906 0.398438 11.726562 0.625 10.5 0.625 Z M 10.5 0.625 "/></g></g></g></svg>